<svg width="470" height="470" viewBox="0 0 470 470" fill="none" xmlns="http://www.w3.org/2000/svg">
<path d="M263.809 45.825C268.657 47.0392 273.135 48.5623 277.23 50.9689C283.171 54.4591 289.059 58.045 294.198 62.7015C294.503 62.9757 294.825 63.2324 295.247 63.5893C295.817 62.9974 296.435 62.4621 296.931 61.8311C299.751 58.2321 303.228 55.3294 306.745 52.4746C316.945 44.1887 328.247 37.7219 340.184 32.3038C345.981 29.6709 351.886 27.3166 358.04 25.6498C360.612 24.9535 363.184 24.2094 365.869 24.044C366.691 23.9961 367.518 23.9265 368.336 23.9831C369.825 24.0875 371.265 24.3356 371.465 26.2504C374.029 29.697 374.255 33.8618 374.873 37.8611C375.804 43.8754 375.874 49.9549 375.465 56.017C375.23 59.4855 374.773 62.9495 374.172 66.3744C371.861 79.5257 368.101 92.3028 363.797 104.919C361.974 110.263 360.046 115.581 357.526 120.642C355.79 124.132 353.845 127.518 351.686 130.778C347.761 136.709 343.418 142.301 338.496 147.445C336.716 149.299 335.049 151.262 333.247 153.094C332.098 154.264 330.819 155.309 329.561 156.366C328.365 157.367 327.825 158.564 327.977 160.152C328.095 161.375 328.008 162.624 327.99 163.86C327.908 170.849 327.255 177.791 326.406 184.727C325.723 190.324 324.887 195.89 323.773 201.417C323.634 202.109 323.643 202.835 323.586 203.523C328.408 205.024 328.408 205.024 329.796 207.035C329.244 209.315 329.244 209.315 326.824 211.861C326.693 212.484 327.229 212.732 327.529 213.119C329.261 215.377 328.996 217.153 326.606 218.829C325.601 219.534 324.526 220.151 323.443 220.735C319.548 222.828 315.466 224.508 311.336 226.074C310.774 226.288 310.226 226.527 309.786 226.71C309.534 227.445 310.017 227.602 310.304 227.793C312.01 228.925 312.533 230.396 311.727 232.311C311.61 232.589 311.562 232.894 311.432 233.372C312.981 233.903 314.517 234.417 316.04 234.961C317.198 235.374 318.36 235.783 319.491 236.262C320.327 236.619 320.766 237.363 320.714 238.242C320.662 239.147 320.531 240.079 320.231 240.927C319.548 242.855 318.743 244.735 317.938 246.759C319.783 248.19 320.309 250.223 320.823 252.338C321.55 255.323 322.072 258.33 322.459 261.372C323.042 265.933 323.634 270.489 324.191 275.05C324.291 275.864 324.2 276.699 324.243 277.518C324.435 281.099 324.644 284.685 324.853 288.371C325.632 288.65 326.38 288.954 327.15 289.181C332.303 290.704 337.112 292.975 341.673 295.787C344.027 297.24 346.373 298.715 348.675 300.252C351.599 302.206 351.773 303.411 349.654 306.262C349.654 307.254 350.385 307.911 350.885 308.655C352.839 311.553 354.606 314.552 356.177 317.681C358.871 323.038 360.586 328.687 361.521 334.592C362.148 338.544 362.605 342.508 362.609 346.508C362.614 352.274 362.675 358.049 362.474 363.81C362.331 367.897 361.782 371.966 361.434 376.044C361.086 380.126 360.438 384.164 359.824 388.207C359.685 389.121 359.611 390.048 359.511 390.966C359.363 392.28 359.219 393.595 359.063 395.005C359.533 395.797 360.107 396.641 360.551 397.555C360.903 398.281 361.182 399.069 361.33 399.857C362.235 404.757 362.044 409.635 360.86 414.47C360.599 415.545 360.211 416.59 359.868 417.682C360.22 417.765 360.516 417.882 360.812 417.895C365.843 418.139 370.873 418.304 375.9 418.622C380.504 418.914 385.126 419.031 389.704 419.645C390.213 419.714 390.74 419.736 391.223 419.893C392.202 420.206 392.92 421.272 392.889 422.243C392.859 423.244 392.124 424.284 391.083 424.467C389.678 424.715 388.246 424.91 386.823 424.924C376.213 424.997 365.603 425.024 354.994 425.058C353.035 425.067 351.073 425.145 349.123 425.028C347.225 424.915 345.511 425.694 343.687 425.951C341.995 426.19 340.41 426.029 338.927 425.463C337.142 424.784 335.519 424.458 333.574 424.95C332.151 425.311 330.527 424.928 329 424.806C325.727 424.545 322.459 424.219 319.182 423.975C318.482 423.923 317.681 423.936 317.067 424.219C314.056 425.607 310.87 426.342 307.632 426.921C306.993 427.034 306.414 427.195 306.083 427.778C305.178 429.371 303.724 429.632 302.101 429.432C301.501 429.358 300.874 429.241 300.334 428.984C298.341 428.031 296.479 427.918 294.494 429.167C293.08 430.054 291.361 430.024 289.711 429.876C285.525 429.502 281.338 429.114 277.152 428.723C271.233 428.17 265.345 427.495 259.649 425.633C258.013 425.098 256.276 424.806 254.562 424.571C250.697 424.049 246.793 423.783 242.951 423.131C239.661 422.569 236.397 422.565 233.111 422.804C226.875 423.261 220.621 423.618 214.433 424.575C211.304 425.058 208.193 425.672 205.09 426.325C204.215 426.508 203.184 426.821 202.618 427.439C200.929 429.28 198.705 429.689 196.482 429.928C193.013 430.298 189.519 430.559 186.033 430.603C178.722 430.698 171.406 430.646 164.091 430.616C159.948 430.598 155.979 429.563 152.028 428.449C149.46 427.722 146.862 427.091 144.32 426.286C142.81 425.807 141.309 425.689 139.76 425.72C135.329 425.794 130.899 425.768 126.473 425.951C116.395 426.364 106.311 426.129 96.2324 426.212C91.1843 426.255 86.1318 426.246 81.0967 426.569C77.093 426.825 73.0936 426.912 69.0899 427.012C67.854 427.043 66.6181 426.973 65.3822 426.982C64.4204 426.991 63.4978 426.773 62.7885 426.159C62.053 425.52 61.3001 425.115 60.321 425.072C59.5463 425.037 59.0023 424.541 58.5585 423.949C57.7098 422.83 58.0362 421.133 59.2852 420.506C59.9119 420.193 60.6212 419.949 61.3175 419.875C63.8677 419.606 66.4266 419.371 68.9855 419.214C73.5985 418.927 78.2201 418.727 82.8331 418.439C84.23 418.352 85.6139 418.1 86.963 417.926C87.05 417.186 86.6018 417.164 86.2493 417.077C82.7591 416.202 79.3864 415.006 76.1704 413.378C69.8211 410.166 64.6815 405.558 60.3253 399.966C56.1432 394.595 53.6713 388.468 52.1743 381.932C51.5128 379.042 51.3039 376.048 51.317 373.058C51.3605 364.576 53.3536 356.573 57.6576 349.271C60.1556 345.032 63.2715 341.259 67.0881 338C74.0206 332.081 82.0106 328.626 90.8971 327.307C95.04 326.694 99.2918 326.798 103.5 327.468C107.373 328.082 111.072 329.144 114.697 330.628C119.019 332.399 122.883 334.888 126.421 337.873C132.013 342.591 136.156 348.409 138.968 355.163C140.465 358.762 141.474 362.496 142.027 366.365C142.362 368.711 142.523 371.052 142.467 373.411C142.214 383.342 139.137 392.289 133.184 400.257C128.406 406.654 122.291 411.341 115.015 414.557C114.545 414.766 114.071 414.966 113.601 415.167C113.235 415.319 112.87 415.467 111.977 415.837C113.087 415.95 113.64 416.081 114.188 416.05C117.469 415.885 120.742 415.628 124.023 415.51C129.985 415.297 135.947 415.132 141.809 415.515C142.597 414.897 142.388 414.122 142.384 413.435C142.379 410.123 142.98 406.916 144.172 403.839C145.239 401.093 146.858 398.717 149.59 397.385C150.857 396.771 152.263 396.445 153.82 395.918C153.842 395.453 153.868 394.857 153.89 394.265C153.96 392.115 154.129 389.978 154.399 387.833C155.252 381.1 154.613 374.499 152.11 368.154C149.895 362.535 147.563 356.961 145.265 351.377C143.82 347.87 142.493 344.323 141.479 340.663C140.909 338.6 140.465 336.516 140.499 334.348C140.53 332.264 140.909 330.271 141.875 328.426C142.68 326.885 143.581 325.397 144.455 323.895C145.278 322.481 145.974 320.953 147.001 319.7C148.067 318.395 148.054 317.093 147.676 315.653C146.448 311.005 145.308 306.34 144.512 301.596C143.955 298.28 143.424 294.956 142.928 291.631C142.506 288.802 142.118 285.965 141.796 283.123C141.635 281.695 141.735 280.237 141.587 278.806C140.856 271.73 140.991 264.636 141.226 257.551C141.326 254.501 141.714 251.441 142.266 248.417C142.545 246.902 143.25 245.766 144.669 245.096C144.055 244.409 144.085 243.695 144.225 242.973C144.708 240.475 144.873 237.868 146.657 235.783C146.409 234.996 146.235 234.199 145.909 233.468C145.073 231.575 145.352 229.9 146.723 228.372C146.858 228.224 146.949 228.033 147.145 227.732C146.714 227.245 146.222 226.758 145.809 226.205C144.599 224.59 144.225 223.002 145.992 220.904C146.779 219.969 147.763 219.181 148.729 218.419C149.934 217.466 151.209 216.605 152.458 215.704C152.611 214.781 152.097 214.098 151.827 213.367C151.544 212.597 151.14 211.874 150.774 211.139C149.577 208.75 150.504 207 152.876 205.938C153.612 205.608 154.36 205.303 155.278 204.911C154.269 204.089 153.411 203.371 152.537 202.674C149.634 200.359 146.988 197.805 144.686 194.872C141.322 190.585 137.854 186.381 134.433 182.138C134.302 181.977 134.168 181.825 134.05 181.655C132.758 179.788 132.644 177.851 133.78 175.876C134.289 174.988 134.846 174.131 135.277 173.43C135.308 172.181 134.794 171.437 134.128 170.758C133.48 170.096 132.779 169.474 132.196 168.76C130.982 167.263 131.535 165.444 133.376 164.861C133.95 164.678 134.577 164.631 135.182 164.591C135.891 164.548 136.605 164.583 137.349 164.583C140.373 160.609 142.806 156.319 145.339 152.093C149.669 144.86 153.529 137.375 157.559 129.977C158.407 128.414 158.568 126.987 158.046 125.277C156.601 120.555 155.753 115.703 155.143 110.803C154.93 109.079 154.665 107.365 154.43 105.706C154.125 105.611 153.938 105.498 153.76 105.506C151.623 105.593 150.657 104.397 150.148 102.469C149.608 100.432 149.621 98.3649 149.865 96.35C150.235 93.2776 151.305 90.4054 152.981 87.7464C155.126 84.3389 157.524 81.1403 160.218 78.1549C172.251 64.8295 186.142 53.815 201.7 44.9024C206.508 42.1477 211.5 39.7324 216.766 37.9264C219.694 36.9211 222.719 36.3075 225.787 36.1334C227.493 36.0377 229.286 36.3162 230.94 36.7862C232.898 37.3432 234.817 38.157 236.628 39.097C238.172 39.8978 239.604 40.9988 239.308 43.2748C247.538 43.4968 255.58 44.341 263.809 45.825ZM168.234 209.028C172.973 211.922 177.712 214.816 182.447 217.719C183.235 218.202 184.053 218.663 184.74 219.264C185.815 220.204 185.528 221.931 184.275 222.671C183.592 223.072 182.887 223.102 182.212 222.745C180.576 221.884 178.952 220.991 177.334 220.095C175.645 219.159 174.013 218.11 171.572 217.162C172.882 219.325 171.515 220.447 170.558 221.783C171.737 222.837 172.812 223.785 173.874 224.751C174.509 225.33 174.962 226.018 174.744 226.927C174.514 227.906 173.608 228.668 172.494 228.729C171.68 228.777 170.845 228.733 170.04 228.598C168.321 228.316 166.611 227.954 164.9 227.611C160.683 226.766 156.458 226.013 152.136 225.818C152.458 229.038 152.458 229.038 150.169 231.788C150.191 231.989 150.161 232.21 150.235 232.389C154.099 242.015 157.82 251.702 161.884 261.242C167.272 273.884 174.039 285.743 182.995 296.244C187.282 301.27 191.978 305.892 197.4 309.717C197.805 310.004 198.27 310.204 198.684 310.431C198.893 310.183 199.062 310.048 199.132 309.874C199.206 309.691 199.154 309.456 199.219 309.269C199.741 307.776 200.947 307.484 201.991 308.633C202.47 309.16 202.879 309.769 203.244 310.383C204.089 311.793 204.872 313.242 205.712 314.656C207.548 317.75 209.402 320.836 211.256 323.917C211.948 325.066 212.792 326.08 213.959 326.907C214.437 326.541 214.833 326.237 215.225 325.932C216.666 324.818 218.184 325.005 219.507 325.984C220.386 326.637 220.961 327.686 221.722 328.508C222.34 329.174 222.306 330.327 223.463 330.697C224.173 330.049 224.982 329.405 225.678 328.656C230.178 323.839 234.7 319.043 239.112 314.151C241.245 311.784 243.155 309.216 245.175 306.749C245.501 306.353 245.836 305.948 246.232 305.631C247.272 304.795 248.626 304.926 249.435 306.044C249.888 306.666 250.07 307.484 250.436 308.355C253.165 306.705 255.693 304.812 258.174 302.854C261.646 300.112 265.067 297.301 268.618 294.668C275.977 289.215 283.375 283.819 290.286 277.783C295.512 273.218 300.165 268.152 304.12 262.465C308.72 255.85 312.163 248.613 315.152 241.154C315.296 240.792 315.309 240.383 315.427 239.752C312.711 238.555 309.769 237.959 307.406 236.184C306.823 236.675 306.396 237.15 305.874 237.459C301.814 239.887 297.736 242.294 293.659 244.692C293.306 244.9 292.914 245.053 292.523 245.175C291.474 245.501 290.369 245.175 289.755 244.335C289.141 243.504 289.12 242.624 289.694 241.75C289.955 241.354 290.234 240.971 290.53 240.549C290.173 240.283 289.942 240.092 289.69 239.926C287.788 238.673 287.549 237.337 288.993 235.661C289.459 235.122 290.064 234.704 290.599 234.225C290.965 233.899 291.322 233.564 291.918 233.016C291.217 233.016 290.804 232.933 290.443 233.029C288.758 233.494 287.096 234.03 285.412 234.5C281.752 235.518 278.088 236.523 274.423 237.515C272.517 238.029 270.563 238.125 268.609 237.955C268.27 237.924 267.861 237.615 267.656 237.315C267.325 236.828 267.569 236.306 267.952 235.936C268.318 235.583 268.727 235.231 269.179 235.017C270.293 234.5 271.421 233.973 272.587 233.603C276.599 232.341 280.625 231.109 284.668 229.934C293.545 227.358 302.397 224.704 310.996 221.292C314.526 219.89 317.994 218.332 321.467 216.792C322.081 216.518 322.581 215.991 323.19 215.534C322.72 215.156 322.376 214.938 322.102 214.651C320.57 213.032 320.871 211.744 321.946 210.247C322.181 209.92 322.542 209.685 322.803 209.376C323.099 209.024 323.752 208.932 323.638 208.075C322.729 207.831 321.75 207.631 320.814 207.305C319.687 206.913 319.004 205.869 319.017 204.685C319.021 204.28 319.121 203.871 319.2 203.471C320.705 195.581 321.611 187.613 322.524 179.64C322.616 178.835 322.537 178.012 322.537 177.12C321.832 176.402 321.093 175.693 320.396 174.936C315.923 170.092 311.479 165.218 306.035 161.406C305.078 160.736 304.49 159.756 304.147 158.651C303.903 157.868 303.685 157.071 303.52 156.266C302.092 149.412 300.138 142.706 297.719 136.139C295.508 130.138 292.575 124.476 289.616 118.823C289.046 117.731 288.593 116.569 287.979 115.507C287.27 114.284 287.653 112.913 287.435 111.712C285.743 110.872 284.158 110.141 282.622 109.319C280.673 108.278 279.036 106.916 278.31 104.71C278.257 104.549 278.018 104.444 277.757 104.223C277.352 104.357 276.86 104.471 276.412 104.679C271.912 106.738 267.661 109.24 263.474 111.873C261.921 112.852 260.828 114.119 260.245 115.851C259.849 117.021 259.388 118.166 259.04 119.35C257.852 123.392 256.663 127.435 255.554 131.5C254.635 134.868 253.8 138.263 252.977 141.661C252.407 144.011 252.555 146.27 253.404 148.611C257.19 159.051 261.298 169.361 265.728 179.549C267.247 183.035 268.779 186.52 270.224 190.037C272.182 194.802 272.887 199.728 271.904 204.842C271.32 207.875 270.716 210.899 269.262 213.672C267.965 216.143 266.016 217.845 263.387 218.85C260.637 219.908 257.799 220.143 254.897 220.104C251.08 220.051 247.39 219.198 243.634 218.298C243.556 218.641 243.508 218.929 243.429 219.207C243.038 220.569 242.207 221.105 240.949 220.695C240.379 220.508 239.813 220.199 239.343 219.825C238.138 218.863 236.95 217.871 235.822 216.818C231.149 212.47 226.492 208.097 221.836 203.728C220.717 202.679 219.642 201.582 218.25 200.847C214.572 202.331 210.969 203.828 207.331 205.238C203.501 206.722 199.641 208.136 195.785 209.55C195.124 209.794 194.402 209.973 193.705 209.981C192.609 209.999 191.834 208.85 192.217 207.792C192.443 207.179 192.874 206.639 193.157 206.156C190.041 205.133 186.977 204.245 184.005 203.118C180.88 201.935 179.109 199.593 178.513 196.234C177.96 193.135 178.147 190.098 178.526 187.021C179.074 182.556 180.449 178.395 182.952 174.653C184.092 172.947 185.337 171.293 186.677 169.74C190.459 165.366 194.645 161.41 199.128 157.755C205.438 152.611 211.926 147.724 218.963 143.615C220.469 142.736 221.5 141.679 222.145 140.047C223.92 135.556 225.818 131.108 227.663 126.643C229.582 122 231.501 117.356 233.346 112.887C232.463 110.485 231.71 108.244 230.813 106.059C229.917 103.874 228.96 101.703 227.872 99.6052C226.797 97.5294 225.931 95.3055 224.36 93.5213C223.398 93.839 222.558 94.2219 221.679 94.383C220.774 94.5527 219.834 94.5353 218.907 94.557C216.848 94.6049 214.786 94.631 212.727 94.6658C211.809 94.6832 210.904 94.7398 210.055 95.2794C210.364 97.451 209.172 98.5912 207.422 99.3354C206.761 99.6182 206.091 99.8794 205.407 100.114C202.875 100.98 200.294 101.664 197.644 102.06C197.039 102.151 196.434 102.395 195.838 102.369C195.281 102.343 194.732 102.055 194.079 101.855C193.139 103.317 192.26 104.701 191.36 106.076C185.724 114.684 180.101 123.301 174.427 131.887C173.408 133.428 172.229 134.864 171.036 136.278C168.874 138.841 165.449 138.424 163.421 136.348C162.637 135.547 162.032 134.572 161.375 133.658C161.136 133.328 161.018 132.914 160.783 132.575C160.592 132.296 160.696 131.7 159.891 131.852C159.578 132.483 159.186 133.184 158.869 133.92C154.343 144.442 148.633 154.321 142.571 164.008C141.97 164.966 141.335 165.914 140.613 166.78C139.908 167.629 139.072 168.369 138.245 169.204C140.452 172.486 139.338 175.467 137.236 178.413C137.71 179.122 138.115 179.832 138.615 180.467C140.021 182.243 141.439 184.005 142.893 185.741C146.992 190.633 151.044 195.564 155.635 200.029C158.085 202.409 160.583 204.65 163.621 206.265C165.079 207.018 166.437 207.966 168.234 209.028ZM312.772 404.714C312.798 403.364 311.945 402.738 310.835 402.233C308.224 401.045 305.63 399.813 303.05 398.56C302.414 398.251 301.762 397.894 301.257 397.411C299.843 396.049 298.615 394.535 297.845 392.689C296.483 389.434 295.652 386.048 295.682 382.515C295.708 378.994 296.526 375.6 297.623 372.266C299.712 365.912 302.358 359.785 305.091 353.688C306.984 349.467 309.064 345.324 310.757 341.029C312.728 336.015 312.55 335.68 310.413 331.385C309.221 328.991 307.998 326.611 306.732 324.256C305.687 322.32 305.678 320.314 306.17 318.255C306.335 317.559 306.601 316.884 306.849 316.21C310.687 305.809 312.485 294.986 313.285 283.993C313.703 278.244 313.786 272.465 313.481 266.695C313.377 264.741 313.403 262.782 313.394 260.824C313.394 260.424 313.455 259.993 313.612 259.631C313.721 259.383 314.03 259.109 314.286 259.07C314.526 259.031 314.948 259.218 315.052 259.427C315.326 259.971 315.535 260.567 315.661 261.163C316.702 265.994 317.224 270.89 317.394 275.82C317.537 280.142 317.372 284.459 317.072 288.776C316.684 294.324 315.936 299.812 314.791 305.252C313.855 309.682 312.615 314.03 311.109 318.299C310.492 320.057 310.6 321.628 311.562 323.303C313.094 325.975 314.417 328.765 315.779 331.533C316.902 333.822 317.259 336.215 316.449 338.7C315.94 340.258 315.553 341.868 314.896 343.361C312.859 347.965 310.683 352.509 308.625 357.104C306.188 362.544 303.79 368.006 301.966 373.689C301.213 376.039 300.565 378.415 300.343 380.891C299.843 386.462 301.918 391.319 304.355 396.193C307.08 395.884 309.482 396.858 312.041 397.59C313.651 392.224 317.389 389.13 322.294 387.001C322.668 387.493 323.081 387.841 323.212 388.277C323.308 388.603 323.151 389.125 322.916 389.404C322.259 390.191 321.48 390.879 320.792 391.645C319.761 392.789 318.686 393.912 317.772 395.144C316.332 397.08 316.01 399.313 316.676 401.593C317.028 402.812 317.124 404.017 317.119 405.249C317.111 408.339 317.076 411.424 316.497 414.475C316.449 414.736 316.58 415.032 316.593 415.123C317.272 415.123 317.868 415.04 318.434 415.145C319.03 415.254 319.587 415.571 320.179 415.745C323.725 416.786 327.268 417.834 330.828 418.827C331.977 419.149 333.173 419.388 334.501 419.062C334.679 415.641 334.849 412.368 335.027 409.096C335.084 408.069 335.093 407.029 335.28 406.023C335.471 404.996 336.559 404.226 337.525 404.239C338.535 404.252 339.501 405.023 339.723 406.08C339.827 406.576 339.845 407.107 339.814 407.616C339.736 408.948 339.571 410.275 339.518 411.607C339.436 413.765 339.405 415.928 339.37 418.091C339.362 418.592 339.427 419.092 339.466 419.684C341.773 420.193 343.979 420.328 346.325 420.08C346.581 419.619 346.886 419.205 347.056 418.74C347.413 417.782 347.809 416.816 347.991 415.815C348.474 413.191 348.853 410.545 349.275 407.908C349.454 406.794 349.654 405.68 349.824 404.566C350.05 403.103 351.408 402.29 352.417 402.416C353.466 402.546 354.297 403.33 354.55 404.74C354.711 405.645 354.715 406.581 354.737 407.507C354.785 409.67 354.798 411.833 354.846 413.996C354.854 414.379 354.88 414.832 355.464 414.823C355.607 414.71 355.838 414.627 355.886 414.483C357.37 409.857 357.052 405.131 356.586 400.41C356.486 399.378 355.79 398.577 354.876 397.951C353.331 396.889 351.686 396.088 349.911 395.518C345.785 394.195 341.551 393.394 337.251 392.964C333.743 392.615 330.419 391.558 327.116 390.435C326.48 390.217 325.919 389.66 325.458 389.138C325.279 388.938 325.349 388.342 325.514 388.042C325.893 387.367 326.593 387.062 327.338 387.075C329.078 387.106 330.828 387.141 332.555 387.315C334.292 387.489 336.002 387.898 337.734 388.098C343.056 388.712 348.283 389.717 353.309 391.619C353.679 391.758 354.08 391.828 354.589 391.958C354.933 389.317 355.229 386.775 355.598 384.247C356.952 374.982 357.757 365.673 357.922 356.308C357.935 355.485 357.975 354.659 357.983 353.836C358.07 347.347 357.857 340.876 356.743 334.462C355.947 329.879 354.685 325.449 352.713 321.228C350.838 317.211 348.575 313.416 346.068 309.765C345.08 308.324 344.092 306.888 343.931 305.126C344.231 304.425 344.514 303.772 344.845 302.998C343.03 301.84 341.255 300.613 339.392 299.538C334.401 296.653 329.318 293.981 323.595 292.771C321.188 292.262 320.544 291.413 320.366 288.967C320.322 288.349 320.305 287.731 320.288 287.113C320.209 284.333 320.257 281.543 320.035 278.775C319.548 272.735 318.965 266.695 318.329 260.667C317.942 257.012 317.389 253.369 316.902 249.674C316.641 249.84 316.406 249.901 316.332 250.044C315.235 252.138 314.173 254.248 313.081 256.346C309.247 263.709 304.268 270.224 298.441 276.125C292.488 282.157 285.83 287.34 279.076 292.41C274.876 295.56 270.511 298.502 266.451 301.818C260.624 306.579 254.609 311.053 248.234 315.052C247.194 315.705 246.254 316.519 245.279 317.272C244.709 317.711 244.23 318.351 243.59 318.586C242.864 318.856 242.011 318.777 241.188 318.856C240.479 319.617 239.774 320.362 239.078 321.123C236.784 323.63 234.53 326.176 232.193 328.643C230.565 330.362 228.859 332.007 227.127 333.622C226.462 334.244 225.678 334.788 224.86 335.201C222.919 336.176 220.939 335.854 219.62 334.1C219.129 333.448 218.759 332.703 218.319 332.011C218.002 331.511 217.658 331.028 217.318 330.528C216.931 330.749 216.666 330.906 216.4 331.063C214.455 332.212 212.644 331.855 210.986 330.488C210.277 329.901 209.594 329.239 209.063 328.495C208.11 327.159 207.222 325.767 206.408 324.339C205.037 321.933 203.741 319.478 202.378 316.976C196.765 314.961 192.199 311.279 187.878 307.28C182.417 302.227 177.677 296.535 173.36 290.482C165.174 279.019 159.152 266.425 153.899 253.426C152.358 249.618 150.918 245.766 149.382 241.959C149.138 241.358 149.129 240.514 148.054 240.2C146.875 241.771 146.492 243.886 144.978 245.231C145.739 246.576 146.279 247.86 146.122 249.361C145.491 255.397 145.461 261.455 145.517 267.517C145.582 274.21 146.061 280.873 146.836 287.523C147.789 295.704 149.212 303.79 151.222 311.771C151.701 313.664 152.219 315.553 152.537 317.476C152.867 319.487 152.463 320.227 150.565 320.675C150.387 320.718 150.243 320.901 150.226 320.914C148.959 323.451 147.806 325.862 146.566 328.23C144.964 331.293 144.664 334.444 145.478 337.799C146.644 342.617 148.503 347.178 150.383 351.738C152.415 356.678 154.53 361.591 156.449 366.574C158.686 372.397 159.783 378.446 159.265 384.708C159.043 387.367 158.655 390.009 158.346 392.659C158.22 393.738 157.916 394.817 158.133 395.984C158.699 396.027 159.104 396.066 159.504 396.088C164.23 396.328 168.956 396.554 173.678 396.815C174.283 396.85 174.892 396.993 175.471 397.185C176.145 397.411 176.307 398.564 175.736 398.991C175.327 399.295 174.888 399.635 174.413 399.744C173.217 400.018 172.003 400.309 170.784 400.353C167.39 400.47 163.986 400.427 160.588 400.523C158.538 400.579 156.493 400.801 154.438 400.914C151.775 401.062 150.078 402.538 149.007 404.857C148.664 405.601 148.437 406.398 148.133 407.159C147.423 408.917 147.523 410.793 147.297 412.621C147.045 414.684 147.388 416.716 147.758 418.722C147.915 419.584 148.228 420.554 149.482 420.807C149.56 420.415 149.669 420.041 149.708 419.658C149.895 417.817 149.969 415.963 150.256 414.14C150.626 411.794 151.349 409.548 152.632 407.507C153.72 405.775 155.204 404.583 157.15 403.978C158.677 403.504 160.174 403.682 161.676 404.196C162.986 404.644 164.117 405.24 164.496 406.768C169.474 404.213 174.692 403.408 180.114 403.752C180.706 403.791 181.315 403.978 181.864 404.213C182.425 404.452 182.525 405.41 182.047 405.797C181.659 406.11 181.22 406.424 180.75 406.559C179.766 406.846 178.744 406.994 177.747 407.238C175.253 407.847 172.747 408.404 170.288 409.122C166.502 410.232 164.213 412.834 163.277 416.629C162.803 418.544 162.707 420.502 163.012 422.456C163.255 424.049 163.782 424.575 165.383 424.78C166.806 424.958 168.243 425.072 169.674 425.128C171.424 425.193 173.178 425.137 174.927 425.193C178.256 425.298 181.472 424.789 184.584 423.57C186.686 422.748 188.805 421.943 190.955 421.259C192.213 420.859 193.54 420.62 194.854 420.459C195.925 420.328 196.704 420.811 196.873 421.481C197.087 422.308 196.53 422.804 196.047 423.348C195.463 424.01 194.38 424.127 194.036 425.254C196.203 425.333 198.14 425.189 199.785 423.583C200.485 422.9 201.53 422.534 202.47 422.147C203.436 421.751 204.463 421.512 205.464 421.207C204.507 420.911 203.584 420.889 202.661 420.915C200.76 420.972 198.897 420.963 197.94 418.861C197.9 418.779 197.796 418.705 197.705 418.67C195.751 417.891 195.455 416.15 195.281 414.383C195.189 413.465 195.215 412.529 195.237 411.603C195.511 401.106 195.328 390.605 195.785 380.108C196.199 370.647 196.238 361.173 196.443 351.704C196.543 347.069 196.638 342.434 196.765 337.804C196.782 337.094 196.882 336.368 197.091 335.693C197.187 335.389 197.622 335.023 197.935 334.993C198.262 334.962 198.771 335.219 198.936 335.506C199.236 336.02 199.45 336.637 199.511 337.229C199.776 339.888 200.05 342.547 200.176 345.215C200.333 348.505 200.342 351.799 200.416 355.107C202.117 354.685 202.161 354.632 202.996 355.307C204.437 356.469 205.843 357.679 207.226 358.91C208.528 360.072 209.777 361.286 211.221 362.135C211.53 362.035 211.757 362.022 211.9 361.904C213.759 360.407 215.534 360.773 217.223 362.17C218.093 362.892 218.907 363.684 219.686 364.507C222.232 367.201 224.747 369.929 227.284 372.632C227.763 373.141 228.302 373.598 228.89 374.15C230.657 372.379 232.28 370.656 234.012 369.054C235.213 367.94 236.506 366.896 237.877 365.999C239.147 365.164 240.566 365.012 241.924 365.995C242.241 366.226 242.62 366.374 243.055 366.604C246.088 365.029 249.078 363.475 252.103 361.904C252.168 359.428 252.216 357.069 252.294 354.711C252.455 349.676 252.629 344.636 252.803 339.601C252.86 337.956 252.93 336.307 253.034 334.666C253.064 334.161 253.156 333.622 253.387 333.186C253.543 332.891 253.965 332.643 254.309 332.569C254.527 332.521 254.975 332.773 255.058 332.991C255.306 333.652 255.523 334.353 255.571 335.049C255.702 336.899 255.797 338.753 255.802 340.606C255.824 347.095 255.824 353.588 255.793 360.077C255.741 372.231 255.649 384.39 255.61 396.545C255.593 401.175 255.789 405.802 256.372 410.406C256.633 412.464 257.116 414.449 257.873 416.363C258.661 418.357 260.054 419.841 261.977 420.789C262.713 421.15 263.496 421.416 264.266 421.699C268.366 423.205 272.665 423.735 276.965 423.923C282.104 424.145 287.261 423.966 292.41 423.949C292.705 423.949 293.001 423.844 293.45 423.762C294.664 420.263 295.103 416.59 295.225 412.917C295.325 409.897 294.033 408.452 291.117 407.525C290.725 407.399 290.325 407.285 289.92 407.242C287.979 407.042 286.043 406.763 284.098 406.711C281.63 406.646 279.154 406.781 276.682 406.802C275.968 406.807 275.246 406.737 274.536 406.646C274.023 406.58 273.836 405.849 274.149 405.432C274.885 404.461 275.994 404.096 277.061 403.813C280.947 402.773 284.872 401.994 288.924 402.847C289.407 402.947 289.968 402.942 290.438 402.799C294.15 401.659 297.954 401.802 301.762 401.898C303.733 401.946 305.648 402.35 307.471 403.064C309.238 403.756 310.339 405.044 310.296 407.059C310.274 408.086 310.257 409.126 310.1 410.14C309.865 411.659 309.508 413.16 309.212 414.671C308.742 417.06 308.281 419.453 307.811 421.882C309.756 421.742 309.934 421.725 310.457 420.702C310.918 419.797 311.344 418.835 311.562 417.847C312.48 413.696 312.811 409.496 312.772 404.714ZM105.415 390.217C105.041 391.923 103.813 393.072 102.695 394.265C100.162 396.972 97.5859 399.639 95.0139 402.307C94.5178 402.82 93.9782 403.308 93.395 403.721C92.6465 404.257 91.8458 404.143 91.1408 403.512C90.3879 402.838 90.1007 402.081 90.5141 401.328C90.9493 400.527 91.5237 399.796 92.0808 399.065C92.9511 397.92 93.9173 396.845 94.7354 395.666C95.3969 394.717 95.2576 393.93 94.4525 393.185C93.9999 392.768 93.4299 392.472 93.0164 392.024C92.4768 391.445 92.0373 390.77 91.663 390.278C91.8849 388.764 92.5203 387.724 93.2645 386.723C94.3089 385.322 95.3795 383.933 96.3238 382.462C97.1507 381.17 97.8861 379.803 98.5346 378.411C99.2526 376.87 99.1047 375.408 97.7164 374.224C97.3248 373.889 96.9679 373.511 96.6372 373.123C95.4883 371.774 95.1314 370.29 95.6493 368.537C96.1628 366.813 97.2116 365.425 98.1951 363.985C99.1221 362.627 100.071 361.282 101.024 359.937C101.524 359.228 101.738 358.471 101.463 357.439C100.549 356.686 99.418 355.934 98.5128 354.972C96.981 353.336 96.7677 351.825 98.4127 350.102C99.1177 349.362 99.9228 348.705 100.732 348.074C101.707 347.317 102.725 346.616 103.739 345.916C104.901 345.115 105.323 344.088 104.823 342.756C101.476 341.055 99.7313 336.215 100.671 332.064C87.4417 329.753 70.2649 336.92 61.5003 351.395C51.6086 367.74 54.62 387.328 66.3526 400.309C78.3028 413.535 97.3639 416.907 111.782 410.75C111.155 408.169 111.164 407.716 111.851 405.701C112.43 403.991 113.453 402.594 114.911 401.541C117.861 399.404 121.282 399.67 125.251 402.364C134.712 392.933 138.898 381.57 137.788 368.249C137.031 359.119 130.93 346.995 125.116 343.235C125.016 344.101 124.824 344.893 124.855 345.676C124.929 347.552 125.69 349.019 127.492 349.863C128.789 350.472 130.051 351.168 131.274 351.921C131.526 352.078 131.691 352.67 131.613 352.996C131.535 353.323 131.152 353.71 130.821 353.814C130.247 353.993 129.611 354.032 129.002 354.032C123.68 354.036 120.255 349.628 121.595 344.445C121.895 343.278 122.465 342.177 122.962 340.915C118.344 337.086 113.109 334.435 107.347 332.938C106.651 333.643 106.442 334.279 106.938 334.993C107.813 336.259 108.674 337.534 109.597 338.766C110.459 339.906 110.746 341.172 110.55 342.547C110.406 343.561 110.15 344.558 109.936 345.615C110.25 346.238 110.624 346.856 110.872 347.521C111.116 348.17 111.229 348.871 111.416 349.619C112.378 349.684 113.296 349.676 114.193 349.824C115.333 350.011 116.112 351.073 116.181 352.248C116.247 353.349 115.79 354.263 115.193 355.107C114.301 356.364 113.292 357.544 112.434 358.828C111.773 359.82 110.846 360.681 110.541 361.983C111.203 362.427 111.825 362.788 112.382 363.232C113.792 364.354 113.901 365.482 113.522 367.1C113.409 367.579 113.092 368.049 112.761 368.428C111.682 369.664 110.541 370.852 109.44 372.07C108.788 372.793 107.882 373.324 107.521 374.355C108.461 374.829 109.297 375.225 110.106 375.665C110.646 375.956 111.198 376.252 111.655 376.653C113.026 377.854 113.244 379.29 112.165 380.757C111.507 381.657 110.676 382.449 109.828 383.185C108.048 384.734 106.203 386.214 104.462 387.659C104.832 388.485 105.119 389.143 105.415 390.217ZM198.288 52.083C188.531 58.1016 179.597 65.182 171.258 73.0284C166.833 77.1931 162.655 81.5972 159.03 86.4974C157.25 88.904 155.67 91.4237 154.682 94.2742C154.521 94.7442 154.338 95.2446 154.787 95.6798C156.197 95.4274 156.81 95.5057 157.38 95.9801C157.981 96.4806 158.142 97.142 158.207 97.8949C158.577 102.09 158.96 106.29 159.382 110.48C159.848 115.089 160.727 119.637 161.998 124.084C162.672 126.447 163.612 128.745 164.6 130.999C165.04 132 165.862 132.853 166.589 133.702C167.041 134.229 167.72 134.185 168.225 133.676C168.8 133.088 169.37 132.488 169.853 131.826C170.941 130.329 172.02 128.824 173.025 127.27C178.617 118.645 184.257 110.045 189.749 101.35C194.467 93.8738 199.023 86.2972 203.614 78.7424C205.216 76.1095 206.674 73.3896 208.249 70.735C208.928 69.5905 209.633 68.4372 210.499 67.4363C211.561 66.2047 213.106 66.357 214.229 67.6278C214.524 67.9629 214.468 68.6853 215.425 68.533C215.93 67.5756 216.518 66.5137 217.057 65.4257C218.694 62.1053 220.295 58.7718 221.936 55.4557C222.436 54.446 222.958 53.4625 224.181 53.0534C224.582 52.9229 224.878 52.3658 225.134 51.9481C225.939 50.6425 226.501 49.1716 227.702 48.1271C227.806 48.0357 227.802 47.8181 227.832 47.7181C227.328 47.3525 226.858 47.0131 226.453 46.7171C226.805 45.2114 228.007 44.9503 229.055 44.6282C230.226 44.267 231.475 44.1582 232.659 43.8319C233.059 43.7231 233.372 43.2835 233.729 42.9876C233.468 42.6917 233.364 42.4871 233.198 42.4001C229.873 40.6681 226.37 40.2677 222.719 41.0119C218.972 41.7734 215.404 43.0616 211.948 44.6718C207.379 46.7868 202.953 49.1803 198.288 52.083ZM220.382 372.018C218.324 370.038 216.77 367.557 214.45 365.804C212.166 367.166 210.225 366.63 208.458 365.033C207.618 364.276 206.765 363.515 206.025 362.666C204.533 360.964 203.118 359.193 201.665 357.457C201.438 357.187 201.36 356.682 200.681 356.917C200.646 357.257 200.577 357.648 200.572 358.04C200.455 365.656 200.346 373.267 200.237 380.883C200.194 383.973 200.133 387.062 200.107 390.152C200.068 394.478 200.033 398.804 200.024 403.134C200.015 406.124 200.124 406.319 203.175 407.033C210.386 408.717 217.697 409.853 225.082 410.323C233.929 410.884 242.781 410.628 251.611 409.814C251.789 409.797 251.955 409.622 252.246 409.453C252.185 408.304 252.138 407.085 252.055 405.871C251.994 404.953 251.829 404.039 251.816 403.125C251.742 398.799 251.659 394.474 251.668 390.148C251.685 383.141 251.781 376.139 251.816 369.133C251.82 368.48 252.124 367.701 251.415 367.218C249.613 368.249 247.881 369.346 246.054 370.256C244.169 371.196 242.189 371.696 240.196 370.43C240.039 370.33 239.8 370.364 239.452 370.321C238.764 370.943 237.968 371.592 237.245 372.323C235.801 373.789 234.412 375.312 232.968 376.783C232.25 377.514 231.523 378.263 230.7 378.864C229.712 379.582 228.546 379.647 227.506 378.985C226.557 378.385 225.635 377.693 224.847 376.901C223.398 375.434 222.058 373.868 220.382 372.018ZM362.261 95.571C364.938 87.2546 367.192 78.8338 369.076 70.2998C370.947 61.8224 371.861 53.2623 371.822 44.6065C371.805 40.5984 371.483 36.5947 371.235 32.591C371.135 30.9721 370.852 29.3663 370.665 27.8431C369.237 28.0172 367.919 28.1695 366.6 28.3436C365.786 28.4524 364.972 28.5743 364.163 28.7135C358.967 29.6013 354.019 31.3246 349.123 33.2133C338.722 37.2214 328.856 42.3044 319.487 48.3273C312.889 52.566 306.671 57.3052 301.196 62.9626C300.06 64.1376 298.959 65.3431 297.958 66.6138C298.285 67.3014 298.581 67.8367 298.789 68.4068C298.924 68.7767 299.094 69.251 298.972 69.5774C297.984 72.2016 299.059 74.3601 300.452 76.4446C300.909 77.1279 301.414 77.785 301.953 78.403C303.655 80.3482 305.113 82.4589 306.353 84.7262C306.588 85.1527 306.718 85.7228 307.484 85.6749C309.93 82.7331 313.22 80.6355 316.192 78.1244C315.296 77.7807 314.469 77.5935 313.79 77.167C312.65 76.4577 312.498 74.9171 313.42 73.9554C313.838 73.5202 314.352 73.1329 314.891 72.8587C315.805 72.3974 316.763 72.0145 317.72 71.6445C319.047 71.131 320.392 70.661 322.194 70.0039C319.979 69.6906 318.268 69.4599 316.562 69.2032C316.058 69.1292 315.531 69.0552 315.078 68.8419C314.656 68.6418 314.317 68.2631 313.834 67.8758C311.475 70.0126 309.186 72.0754 306.91 74.1469C306.379 74.6299 305.926 75.2305 305.339 75.6221C304.856 75.9442 304.229 76.1313 303.642 76.2053C302.906 76.301 302.179 75.6439 302.201 74.9215C302.223 74.3296 302.306 73.6682 302.589 73.1677C302.985 72.4627 303.524 71.8056 304.116 71.2485C305.839 69.6253 307.563 67.9977 309.386 66.4876C313.19 63.3369 316.971 60.1469 320.919 57.1833C324.866 54.2241 328.943 51.4128 333.091 48.7407C337.325 46.0121 341.707 43.5185 346.042 40.9466C350.285 38.4269 355.033 36.9385 359.324 34.5015C361.295 33.3831 363.197 34.1577 364.211 36.19C364.437 36.6426 364.646 37.1344 364.724 37.6305C364.946 39.0492 365.199 40.4722 365.251 41.8996C365.442 47.0479 365.086 52.1831 364.711 57.3182C364.32 62.658 363.58 67.9498 362.583 73.2025C361.199 80.4832 359.171 87.5941 356.639 94.5614C351.73 108.07 345.285 120.786 337.029 132.566C335.732 134.42 334.314 136.187 332.877 137.941C332.299 138.65 331.585 139.285 330.832 139.803C329.048 141.03 327.085 140.369 326.415 138.298C325.501 135.464 324.6 132.618 323.839 129.742C321.754 121.891 319.513 114.097 316.427 106.568C316.079 105.715 315.688 104.875 315.279 104.048C315.213 103.914 314.917 103.805 314.761 103.835C314.608 103.866 314.365 104.114 314.382 104.231C314.53 105.241 314.639 106.272 314.93 107.243C315.666 109.701 316.541 112.121 317.246 114.589C317.581 115.759 317.729 116.995 317.842 118.214C317.955 119.437 316.88 120.185 316.266 121.234C319.665 128.232 322.224 135.473 323.569 143.002C326.089 143.676 326.132 143.698 326.689 145.931C326.885 146.727 326.963 147.55 327.094 148.363C327.29 149.564 327.486 150.761 327.694 152.015C328.956 151.575 329.648 150.639 330.432 149.847C334.344 145.891 338.126 141.814 341.599 137.466C348.327 129.05 353.819 119.92 357.413 109.719C359.019 105.18 360.577 100.61 362.261 95.571ZM340.441 56.2999C339.427 56.5001 338.413 56.5654 337.412 56.2172C336.154 55.7777 335.545 54.6854 335.75 53.3058C335.815 52.8619 336.45 52.4833 335.802 51.8349C335.502 51.935 335.097 51.9872 334.792 52.1918C328.447 56.4044 322.337 60.9303 316.467 65.7782C316.214 65.9871 316.066 66.3179 315.675 66.8662C318.281 66.8662 320.54 66.8009 322.79 66.888C324.426 66.9489 326.062 67.1534 327.681 67.3971C328.765 67.5581 329.444 68.3023 329.574 69.1683C329.727 70.191 329.357 71.0048 328.508 71.5532C327.908 71.9405 327.259 72.2581 326.602 72.5367C325.188 73.1372 323.752 73.6899 322.32 74.2644C323.578 76.7971 323.464 77.5065 321.515 79.3082C321.062 79.7259 320.583 80.1176 320.092 80.4962C318.299 81.8714 316.484 83.2292 314.695 84.6087C313.568 85.4791 312.406 86.3233 311.545 87.4548C319.765 101.333 324.561 116.377 327.86 132.279C328.325 131.7 328.604 131.413 328.817 131.082C330.758 128.053 332.656 124.998 334.627 121.991C335.867 120.098 337.277 118.318 338.47 116.399C339.383 114.924 340.11 113.327 340.859 111.751C341.39 110.628 341.15 109.545 340.445 108.553C340.267 108.3 340.062 108.07 339.871 107.826C338.235 105.75 338.165 103.483 339.127 101.137C339.553 100.097 340.058 99.0743 340.637 98.1082C341.799 96.1716 343.091 94.309 344.231 92.3594C345.942 89.4349 347.595 86.4757 349.201 83.4946C349.623 82.7157 350.15 81.8627 349.663 80.7225C349.414 80.6007 349.062 80.4179 348.696 80.2612C348.131 80.0175 347.526 79.8478 346.991 79.5562C344.967 78.4552 344.379 76.6883 345.406 74.6169C345.811 73.7987 346.368 73.0415 346.938 72.3191C347.891 71.1093 348.923 69.9604 349.898 68.7636C350.193 68.3981 350.624 68.0281 350.233 67.3623C349.301 67.1447 348.305 66.9358 347.313 66.6791C346.716 66.5268 346.116 66.3614 345.559 66.109C343.178 65.0254 342.399 62.9191 343.47 60.4994C343.718 59.9381 344.036 59.4028 344.379 58.898C344.841 58.2191 345.385 57.5968 345.837 56.9092C346.037 56.6045 346.098 56.2085 346.22 55.8473C345.176 55.4208 344.275 55.547 343.361 55.7516C342.56 55.93 341.751 56.078 340.441 56.2999ZM236.205 187.678C238.159 185.276 239.87 182.708 241.262 179.94C241.515 179.436 241.597 178.844 241.771 178.234C239.835 177.329 238.033 176.602 236.127 176.15C233.033 175.41 229.947 174.627 226.849 173.896C222.649 172.899 218.441 171.946 214.242 170.945C213.119 170.675 212.035 170.458 210.782 171.167C210.599 172.477 210.329 173.883 210.225 175.301C209.977 178.717 210.469 182.064 211.23 185.393C211.713 187.517 212.401 189.549 213.445 191.455C215.569 195.333 220.138 197.966 225.221 196.551C226.627 196.16 227.889 195.498 229.077 194.663C231.71 192.804 233.912 190.502 236.205 187.678ZM303.015 422.652C303.563 420.158 304.216 417.682 304.625 415.167C305.047 412.573 306.013 410.04 305.818 407.39C303.842 406.668 299.333 406.124 296.883 406.306C299.151 408.996 299.351 412.146 299.02 415.376C298.811 417.408 298.372 419.418 298.067 421.446C297.98 422.021 297.701 422.617 298.124 423.3C299.599 423.596 301.078 423.178 303.015 422.652ZM162.063 407.355C161.654 407.364 161.24 407.386 160.831 407.377C158.333 407.325 156.762 408.648 155.909 410.854C154.673 414.057 154.256 417.39 154.556 420.741C154.717 420.876 154.791 420.95 154.874 421.007C155.043 421.12 155.217 421.229 155.396 421.329C157.058 422.312 157.08 422.404 156.092 424.136C156.049 424.214 156.014 424.301 155.97 424.393C156.767 424.81 157.546 425.302 158.538 425.032C157.359 418.278 158.403 412.273 163.664 407.386C163.164 407.355 162.864 407.333 162.063 407.355ZM202.696 410.715C201.756 410.523 200.947 409.727 199.78 409.975C199.624 412.016 199.602 413.935 199.711 416.02C201.378 416.037 202.857 416.12 204.389 415.767C203.58 414.218 203.723 412.921 205.338 411.755C204.424 411.398 203.784 411.146 202.696 410.715ZM114.14 408.591C113.958 408.952 113.749 409.309 114.227 409.775C117.274 408.478 120.107 406.763 122.814 404.335C121.495 404.335 120.42 404.304 119.341 404.344C117.722 404.4 116.395 405.088 115.42 406.38C114.993 406.942 114.667 407.577 114.14 408.591ZM250.858 416.168C251.489 416.929 252.49 416.877 253.291 417.264C253.404 417.316 253.613 417.173 253.865 417.095C253.639 416.242 253.417 415.38 253.156 414.392C252.438 414.544 251.759 414.636 251.128 414.858C250.967 414.91 250.941 415.363 250.858 416.168ZM316.719 416.594C316.427 417.099 316.136 417.604 315.801 418.178C316.205 418.322 316.475 418.478 316.754 418.496C317.037 418.513 317.333 418.396 317.772 418.309C317.494 417.804 317.259 417.382 316.719 416.594Z" fill="#0C0A0B"/>
<path d="M99.5571 304.673C98.3995 304.007 98.0905 302.993 97.8772 302.019C97.12 298.541 95.9885 295.143 95.6273 291.587C95.4533 289.868 95.388 288.136 95.3358 286.413C95.314 285.743 96.415 285.264 97.0286 285.664C97.8076 286.173 98.4125 286.8 98.6649 287.771C99.383 290.525 100.088 293.284 100.484 296.104C100.697 297.614 100.919 299.129 101.024 300.648C101.106 301.862 101.215 303.12 100.519 304.225C100.375 304.456 100.031 304.56 99.5571 304.673Z" fill="#0C0A0B"/>
<path d="M107.069 314.086C109.079 310.191 111.695 307.049 114.759 304.273C115.189 303.881 115.794 303.607 116.36 303.468C116.656 303.394 117.156 303.646 117.374 303.907C117.592 304.173 117.766 304.738 117.631 304.991C116.569 306.971 115.537 308.981 114.28 310.84C112.674 313.211 110.877 315.448 109.149 317.737C108.905 318.059 108.622 318.377 108.296 318.612C107.769 318.995 107.165 319.095 106.56 318.773C106.133 318.547 105.755 317.672 105.929 317.154C106.242 316.192 106.638 315.257 107.069 314.086Z" fill="#0C0A0B"/>
<path d="M86.3406 316.832C83.8253 316.158 81.9105 314.778 80.1567 313.225C78.4681 311.728 76.9319 310.052 75.3914 308.394C74.9257 307.889 74.669 307.189 74.2729 306.501C74.5689 306.166 74.7734 305.726 75.0954 305.613C75.548 305.457 76.1921 305.348 76.562 305.557C77.9807 306.362 79.3516 307.258 80.6832 308.203C81.6842 308.912 82.6067 309.734 83.5511 310.522C85.2092 311.91 86.7149 313.416 87.3154 315.692C87.1153 315.988 86.8324 316.406 86.3406 316.832Z" fill="#0C0A0B"/>
<path d="M219.908 278.205C216.492 275.376 213.245 272.696 210.125 270.119C209.072 270.098 209.085 270.89 208.741 271.334C207.792 272.57 205.991 272.748 204.916 271.808C203.91 270.925 202.818 270.141 201.835 269.24C195.994 263.879 190.124 258.552 184.675 252.79C182.695 250.697 180.806 248.517 178.918 246.345C178.313 245.653 177.795 244.874 177.316 244.087C177.06 243.665 176.912 243.151 176.807 242.659C176.646 241.924 176.903 241.328 177.408 241.066C177.93 240.792 178.526 240.979 179.044 241.497C180.85 243.316 182.678 245.118 184.488 246.928C190.385 252.83 196.604 258.383 202.87 263.883C203.484 264.419 204.132 264.915 204.698 265.376C205.029 265.289 205.286 265.298 205.412 265.176C207.035 263.544 208.798 263.922 210.482 264.936C212.061 265.889 213.602 266.938 215.029 268.109C219.09 271.429 223.085 274.837 227.106 278.205C227.576 278.597 228.055 278.975 228.429 279.276C229.33 279.389 229.639 278.749 230.087 278.379C233.973 275.15 238.207 272.422 242.49 269.771C243.708 269.018 244.992 268.361 246.25 267.665C247.185 267.151 248.186 266.886 249.205 267.313C250.223 267.743 250.758 268.609 250.945 269.693C250.963 269.784 251.067 269.858 251.228 270.067C252.255 269.48 253.33 268.914 254.353 268.27C261.133 263.996 267.896 259.697 274.676 255.428C276.939 254.005 279.219 252.608 281.526 251.263C282.496 250.697 283.541 250.258 284.585 249.84C285.059 249.648 285.686 249.648 285.93 250.192C286.06 250.484 285.952 251.058 285.73 251.306C284.837 252.299 283.937 253.308 282.905 254.135C280.098 256.389 277.226 258.561 274.367 260.75C267.739 265.824 260.493 269.928 253.365 274.223C252.399 274.802 251.333 275.211 250.332 275.733C249.466 276.186 248.556 276.273 247.638 276.042C246.68 275.803 246.058 275.15 245.675 274.232C245.571 273.984 245.257 273.827 244.97 273.566C241.058 275.881 237.328 278.423 233.764 281.204C232.876 281.896 232.041 282.644 231.619 283.776C231.358 284.472 230.7 284.811 229.982 285.064C229.447 285.251 229.016 285.281 228.546 284.981C227.598 284.372 226.579 283.858 225.709 283.153C223.79 281.608 221.949 279.959 219.908 278.205Z" fill="#0C0A0B"/>
<path d="M264.767 141.77C265.354 141.039 265.837 140.504 266.268 139.929C267.83 137.841 270.333 137.244 272.456 136.074C273.362 135.578 274.519 135.86 275.311 136.657C276.103 137.453 276.874 138.293 277.5 139.22C278.762 141.091 280.011 142.98 281.099 144.951C283.615 149.534 286.043 154.164 288.476 158.795C288.902 159.609 289.233 160.479 289.524 161.354C289.716 161.928 289.838 162.546 289.86 163.151C289.916 164.826 288.802 165.849 287.122 165.649C286.526 165.579 285.925 165.362 285.381 165.096C284.459 164.652 283.584 164.113 282.688 163.617C281.887 163.173 281.091 162.733 280.164 162.224C279.802 162.672 279.467 163.033 279.189 163.429C278.305 164.687 277.522 166.028 276.556 167.22C273.462 171.023 268.588 171.607 264.558 168.273C261.39 165.653 259.766 162.246 259.562 158.103C259.301 152.876 261.011 148.22 263.492 143.763C263.84 143.145 264.253 142.554 264.767 141.77ZM272.526 150.383C272.544 149.247 272.548 148.12 271.982 147.075C271.355 145.922 269.945 145.417 268.827 146.096C268.235 146.453 267.696 146.988 267.295 147.558C265.794 149.699 265.058 152.163 264.562 154.691C264.427 155.379 264.493 156.136 264.623 156.832C264.897 158.286 266.055 159.043 267.565 158.925C268.479 158.856 269.075 158.333 269.571 157.65C271.046 155.627 271.947 153.351 272.526 150.383Z" fill="#0C0A0B"/>
<path d="M203.619 145.526C201.495 147.032 199.432 148.115 197.065 148.607C193.836 149.277 190.629 148.033 189.232 144.286C188.762 143.028 188.487 141.722 188.518 140.369C188.553 138.62 188.609 136.874 188.635 135.125C188.648 134.429 188.609 133.732 188.596 133.201C187.93 132.549 187.273 132.731 186.69 132.61C186.09 132.479 185.48 132.375 184.893 132.192C183.452 131.748 183.004 130.007 184.123 129.006C184.801 128.401 185.598 127.884 186.425 127.496C190.689 125.486 194.976 123.514 199.267 121.556C201.317 120.62 203.31 119.558 205.508 118.975C207.831 118.357 209.79 119.293 211.483 120.642C212.723 121.63 213.054 123.249 213.136 124.829C213.284 127.522 212.901 130.151 212.157 132.74C210.691 137.836 207.901 142.049 203.619 145.526ZM201.517 128.306C201.008 129.972 200.512 131.639 199.989 133.302C199.659 134.359 200.007 135.356 200.342 136.3C200.86 137.745 203.088 138.328 204.241 137.336C207.187 134.799 208.841 131.591 208.919 127.666C208.95 126.104 208.145 125.194 206.404 124.58C205.125 124.128 203.645 124.559 202.862 125.712C202.409 126.391 202.1 127.161 201.517 128.306Z" fill="#0C0A0B"/>
<path d="M224.551 214.903C225.744 215.556 226.784 216.022 227.671 216.692C228.572 217.371 228.864 218.768 228.455 219.46C228.037 220.169 226.705 220.643 225.7 220.395C225.204 220.273 224.725 220.082 224.251 219.886C220.178 218.219 216.1 216.561 212.035 214.864C210.808 214.35 209.616 213.75 208.432 213.136C207.992 212.906 207.583 212.562 207.253 212.188C207.087 212 207.031 211.591 207.109 211.343C207.187 211.108 207.505 210.786 207.718 210.786C208.841 210.786 210.003 210.717 211.082 210.965C215.573 211.987 220.069 213.001 224.551 214.903Z" fill="#0C0A0B"/>
<path d="M272.887 124.467C276.495 127.988 279.772 131.535 283.519 134.598C284.206 135.16 284.685 136.008 285.168 136.779C285.542 137.379 284.99 138.306 284.298 138.402C283.345 138.533 282.487 138.254 281.626 137.871C279.628 136.979 277.892 135.673 276.399 134.141C274.767 132.462 273.409 130.516 271.917 128.706C270.785 127.335 270.111 125.76 269.702 123.98C269.941 123.693 270.202 123.384 270.55 122.966C271.373 123.475 272.052 123.897 272.887 124.467Z" fill="#0C0A0B"/>
<path d="M194.915 117.06C200.76 114.036 206.552 111.451 212.392 108.966C213.223 108.614 214.033 108.109 215.021 108.226C215.495 108.283 215.939 108.936 215.682 109.358C215.421 109.784 215.134 110.224 214.768 110.554C212.305 112.783 209.42 114.332 206.4 115.629C202.736 117.204 199.032 118.697 195.05 119.31C194.767 119.354 194.463 119.493 194.206 119.432C193.936 119.371 193.618 119.171 193.497 118.94C193.383 118.719 193.383 118.279 193.536 118.109C193.862 117.744 194.315 117.491 194.915 117.06Z" fill="#0C0A0B"/>
<path d="M263.596 373.084C263.735 372.653 263.805 372.458 263.87 372.266C264.149 371.457 264.88 371.178 265.558 371.209C266.411 371.248 267.103 371.809 267.391 372.658C267.552 373.137 267.526 373.676 267.639 374.172C267.817 374.951 268.043 375.717 268.309 376.692C269.088 376.196 269.667 375.817 270.254 375.452C272.648 373.972 273.736 374.168 275.472 376.37C275.65 376.596 275.864 376.801 276.081 377.036C277.644 376.701 279.027 376.078 280.346 375.252C282.609 373.833 284.876 372.414 287.213 371.122C288.206 370.569 289.237 369.542 290.56 370.508C290.734 371.892 289.633 372.514 288.819 373.224C286.726 375.043 284.62 376.857 282.387 378.494C281.251 379.325 279.876 379.895 278.531 380.356C276.242 381.14 274.053 381.07 272.478 378.907C271.56 378.903 271.277 379.682 270.733 380.082C269.989 380.63 269.305 381.283 268.505 381.727C266.707 382.724 264.727 381.975 264.048 380.025C263.748 379.168 263.609 378.233 263.552 377.323C263.47 376 263.526 374.655 263.596 373.084Z" fill="#0C0A0B"/>
<path d="M172.646 376.705C172.059 376.531 171.654 376.396 171.289 376.461C171.023 376.509 170.819 376.84 170.562 377.005C169.013 378.002 167.62 377.98 166.419 376.627C165.196 375.256 164.169 373.702 163.138 372.175C162.863 371.766 162.977 371.161 163.368 370.743C163.769 370.316 164.286 370.247 164.774 370.508C165.401 370.847 166.001 371.243 166.571 371.674C167.05 372.035 167.468 372.479 167.877 372.849C171.006 371.361 171.215 371.322 174.283 372.888C176.019 373.776 177.673 374.825 179.361 375.795C180.24 376.3 181.124 376.805 181.877 377.232C183.174 376.957 183.156 375.726 183.892 375.204C184.205 374.982 184.631 374.729 184.975 374.773C185.497 374.834 185.906 375.278 185.933 375.826C185.98 376.849 186.046 377.897 185.893 378.903C185.584 380.952 183.478 382.188 181.515 381.488C180.458 381.113 179.44 380.609 178.456 380.065C176.563 379.025 174.714 377.915 172.646 376.705Z" fill="#0C0A0B"/>
<path d="M77.8981 395.662C78.49 394.761 79.1297 394.199 79.9522 394.043C80.9749 393.843 81.9018 393.682 82.3109 392.507C82.3979 392.254 82.9898 392.037 83.3466 392.041C86.3364 392.076 89.152 394.726 89.3304 397.611C89.535 400.98 86.2493 404.661 82.9028 404.618C80.605 404.587 78.8033 403.504 77.7023 401.389C76.7275 399.517 76.7623 397.69 77.8981 395.662ZM84.6478 398.782C85.0743 396.745 83.6165 395.727 82.485 394.526C81.9889 394.904 81.5972 395.222 81.1881 395.518C80.457 396.049 80.2699 396.802 80.2699 397.651C80.2699 398.882 80.766 399.844 81.9018 400.327C83.0638 400.823 83.8079 400.096 84.6478 398.782Z" fill="#0C0A0B"/>
<path d="M126.608 372.749C126.526 372.471 126.491 372.166 126.352 371.914C126.047 371.361 126.243 370.895 126.621 370.534C127.622 369.59 128.828 369.564 130.055 369.955C132.383 370.699 133.471 372.54 133.806 374.76C134.172 377.205 133.419 379.381 131.591 381.161C128.832 383.851 124.419 382.676 123.131 378.568C122.84 377.636 122.866 376.496 123.092 375.534C123.458 373.959 124.359 372.736 126.482 372.91C126.574 373.598 126.5 374.133 126.208 374.499C125.438 375.465 125.638 376.413 126.117 377.375C126.556 378.254 127.444 378.89 128.001 378.742C128.897 378.498 129.328 377.767 129.546 376.97C129.798 376.061 129.816 375.103 129.133 374.333C128.458 373.563 127.757 372.784 126.608 372.749Z" fill="#0C0A0B"/>
<path d="M67.0879 379.821C66.0957 379.225 65.221 378.829 64.5943 378.193C62.9754 376.544 62.5968 374.251 63.6848 372.214C64.6074 370.495 65.6605 368.941 68.0714 368.898C69.2464 368.876 70.4693 368.519 71.7009 368.441C73.8159 368.315 75.8221 370.382 75.9135 372.536C76.0136 374.873 75.0605 376.748 73.3415 378.224C71.9881 379.386 70.4258 380.147 68.5502 379.978C68.1367 379.943 67.7277 379.938 67.0879 379.821ZM67.6276 370.086C66.2741 370.329 65.9695 371.518 65.5343 372.518C65.1601 373.385 65.2427 374.342 65.5387 375.238C65.8868 376.292 67.0139 377.088 68.115 377.136C70.0951 377.218 71.9664 375.739 72.3276 373.798C72.5277 372.732 72.1361 371.97 71.1526 371.578C70.1081 371.169 69.055 370.791 67.6276 370.086Z" fill="#0C0A0B"/>
<path d="M76.649 346.185C77.4236 345.145 78.2766 344.623 79.3253 344.41C79.6561 344.345 79.8171 344.445 80.5178 345.259C80.0391 345.637 79.4951 345.946 79.1078 346.394C78.2026 347.443 77.6629 348.588 78.1895 350.063C78.7683 351.682 79.7779 352.208 81.6014 351.612C82.7024 351.251 83.477 350.368 84.1385 349.436C84.7652 348.557 84.9218 347.574 84.7042 346.377C83.551 345.785 82.3629 345.206 81.2184 344.558C81.0182 344.445 80.8615 344.027 80.9007 343.788C80.9442 343.535 81.2445 343.148 81.4447 343.139C82.6676 343.091 83.934 342.943 85.109 343.191C86.4841 343.483 87.4416 344.462 87.6896 345.942C88.4599 350.511 84.4431 354.206 81.1531 354.615C77.7891 355.033 75.1389 352.374 75.6002 348.945C75.722 348.07 76.2138 347.239 76.649 346.185Z" fill="#0C0A0B"/>
</svg>
