<svg width="32" height="32" viewBox="0 0 32 32" fill="none" xmlns="http://www.w3.org/2000/svg">
<path d="M10.4503 23.1658L5.56672 23.3412C5.45877 23.3454 5.35296 23.3168 5.26123 23.2601C4.9024 23.0365 4 22.461 4 22.461C5.74763 21.4809 8.34005 21.9984 9.24885 22.2263C9.54965 22.3018 9.83253 22.4409 10.0676 22.644C10.2716 22.8198 10.3906 22.9964 10.4503 23.1658Z" fill="#0E0E0E" stroke="#0E0E0E" strokeWidth="0.5" strokeLinejoin="round"/>
<path d="M22.7265 5.75443C22.7265 5.75443 22.6053 6.25363 22.1113 6.83006C21.9811 6.98153 21.8356 7.11806 21.6829 7.24649C21.4721 7.42355 20.949 7.96841 21.0369 8.95614C19.2534 8.92499 19.2701 7.99273 19.4838 7.36766C19.5747 7.10185 19.7185 6.85779 19.8964 6.64062C20.1051 6.38505 20.3265 6.08382 20.513 5.82057C20.9529 5.19977 21.1773 4.4467 21.1222 3.68809C21.0565 2.78441 20.6371 2.22249 20.1354 1.87305C20.2254 1.90931 23.4245 3.21961 22.7265 5.75443Z" fill="#0E0E0E" stroke="#0E0E0E" strokeWidth="0.5" strokeLinejoin="round"/>
<path d="M27.5352 9.8887L26.9853 15.4187C26.9597 15.6752 26.8786 15.9243 26.7374 16.1394C26.4029 16.6484 25.6361 17.1736 24.0485 15.7421C25.2146 16.1458 25.3516 13.8913 25.3516 13.8913L25.7548 8.69531L27.4043 9.63483C27.4943 9.68603 27.5455 9.78545 27.5352 9.8887Z" fill="#0E0E0E" stroke="#0E0E0E" strokeWidth="0.5" strokeLinejoin="round"/>
<path d="M23.9061 15.6794C23.6484 15.5348 22.0796 14.7493 20.9041 16.3552C20.7091 16.6219 20.5589 16.9184 20.448 17.2295C20.2061 17.9087 19.8379 19.2954 20.602 19.8769C19.9979 19.8509 19.4193 19.5979 19.005 19.1473C18.461 18.5551 18.1521 17.6075 18.6846 16.1726C19.5418 13.8631 21.7348 14.1391 22.432 14.6767C23.0417 15.1465 23.7402 15.5774 23.9061 15.6794Z" fill="#0E0E0E" stroke="#0E0E0E" strokeWidth="0.5" strokeLinejoin="round"/>
<path d="M23.9061 15.6797C23.9108 15.6824 23.9156 15.6856 23.9193 15.6882L23.9061 15.6797Z" fill="#0E0E0E"/>
<path d="M23.9061 15.6797C23.9108 15.6824 23.9156 15.6856 23.9193 15.6882" stroke="#0E0E0E" strokeWidth="0.5" strokeLinejoin="round"/>
<path d="M24.9246 22.4707L22.208 27.7891L20.486 26.8192C20.486 26.8192 22.9842 22.0986 23.3182 21.2999C23.6523 20.5012 23.3037 20.1961 23.3037 20.1961C23.2329 20.0958 23.1122 20.0203 22.9586 19.9648C23.0213 19.9832 25.0155 20.5839 25.0659 21.8588C25.0744 22.0713 25.0211 22.2816 24.9246 22.4707Z" fill="#0E0E0E" stroke="#0E0E0E" strokeWidth="0.5" strokeLinejoin="round"/>
<path d="M18.4989 25.2264C15.4585 24.2391 15.6761 26.235 15.8408 26.9506C15.9197 27.2936 15.9637 27.6443 15.9551 27.9959C15.9201 29.4568 15.1696 30.0285 15.1696 30.0285C13.0734 31.9379 9.99759 29.4005 9.92761 29.342C10.0868 29.4555 10.2583 29.5524 10.44 29.63C12.4006 30.4684 13.9208 28.5032 13.9208 28.5032C14.5296 27.6913 14.324 26.1949 14.2314 25.6881C14.1956 25.4914 14.1806 25.2908 14.1964 25.0912C14.295 23.8705 15.2806 23.9895 15.2806 23.9895C16.4151 24.0539 17.5675 24.6184 18.4989 25.2264Z" fill="#0E0E0E" stroke="#0E0E0E" strokeWidth="0.5" strokeLinejoin="round"/>
<path d="M11.0388 11.9865C8.5671 13.0976 6.82886 11.1426 6.82886 11.1426C7.41339 11.4191 8.37936 11.2019 8.37936 11.2019C9.54288 11.088 10.3092 11.4156 10.7755 11.754C10.8711 11.8235 10.9594 11.9012 11.0388 11.9865Z" fill="#0E0E0E" stroke="#0E0E0E" strokeWidth="0.5" strokeLinejoin="round"/>
<path d="M25.7549 8.69545L25.3517 13.8914C25.3517 13.8914 25.2147 16.1459 24.0486 15.7423C24.0145 15.7308 23.9791 15.7167 23.9428 15.7C23.9428 15.7 23.9343 15.6949 23.9181 15.6855C23.9147 15.6834 23.9104 15.6808 23.9061 15.6787C23.7402 15.5767 23.0417 15.1458 22.432 14.676C21.7348 14.1384 19.5418 13.8624 18.6846 16.1719C18.1521 17.6068 18.461 18.5544 19.005 19.1466C19.4193 19.5972 19.9979 19.8502 20.602 19.8762C20.7108 19.8814 20.8205 19.8788 20.9301 19.8686C21.5185 19.814 22.4303 19.773 22.9572 19.9637C22.9577 19.9637 22.9581 19.9641 22.9585 19.9641C23.1121 20.0196 23.2329 20.0951 23.3037 20.1954C23.3037 20.1954 23.6523 20.5005 23.3182 21.2992C22.9841 22.0979 20.486 26.8185 20.486 26.8185C20.486 26.8185 19.6663 25.9882 18.499 25.2266C17.5676 24.6186 16.4151 24.0542 15.2806 23.9897C15.2806 23.9897 14.295 23.8707 14.1965 25.0914C14.1807 25.2911 14.1956 25.4916 14.2315 25.6883C14.3241 26.1952 14.5297 27.6915 13.9209 28.5034C13.9209 28.5034 12.4006 30.4687 10.4401 29.6303C10.2583 29.5526 10.0868 29.4558 9.92768 29.3423C9.92725 29.3418 9.92683 29.3418 9.9264 29.3414C9.51168 29.0453 9.18272 28.6374 8.97621 28.1642C8.58923 27.2759 8.38912 25.8312 10.0062 24.3968C10.0062 24.3968 10.6867 23.8344 10.4508 23.1658H10.4503C10.3906 22.9965 10.2716 22.8198 10.0676 22.644C9.83253 22.4409 9.54965 22.3018 9.24885 22.2263C8.34005 21.9985 5.74763 21.4809 4 22.461L4.42197 17.1166C4.45269 16.7253 4.56405 16.3426 4.76288 16.0042C5.01333 15.578 5.43403 15.203 6.04032 15.4521C6.19861 15.5174 6.33941 15.6177 6.45973 15.7393C6.90219 16.186 8.64811 17.6094 10.057 16.477C10.057 16.477 11.8814 15.1356 11.5268 12.9792C11.4654 12.605 11.2951 12.2585 11.0387 11.9855C10.9594 11.9001 10.871 11.8225 10.7755 11.7529C10.3091 11.4146 9.54283 11.0869 8.37931 11.2008C8.37931 11.2008 7.41333 11.418 6.8288 11.1415C6.49941 10.9854 6.29077 10.6722 6.44523 10.0744C6.48448 9.9234 6.54336 9.77833 6.61547 9.63966L9.23819 4.60244C9.29323 4.49748 9.39051 4.41769 9.50699 4.39593C9.64309 4.37033 9.83211 4.40702 10.0425 4.65364C10.0425 4.65364 12.5188 7.34462 14.3863 7.12318C14.3863 7.12318 15.6262 7.07369 15.6322 5.9507C15.6326 5.81844 15.6147 5.6866 15.5844 5.55817C15.4718 5.0803 15.0157 2.68073 16.9502 1.67806C17.6823 1.29876 18.5412 1.2322 19.3267 1.48265C19.5925 1.56756 19.8737 1.69129 20.1331 1.87177C20.1331 1.87177 20.1335 1.87177 20.1348 1.87262H20.1353C20.637 2.22206 21.0564 2.78398 21.1221 3.68766C21.1772 4.44628 20.9527 5.19934 20.5129 5.82014C20.3264 6.0834 20.105 6.38462 19.8963 6.6402C19.7184 6.85737 19.5746 7.10142 19.4837 7.36724C19.27 7.9923 19.2533 8.92457 21.0368 8.95572C21.0675 8.95614 21.0987 8.95657 21.1302 8.95657C21.1302 8.95657 25.0142 8.89129 25.7549 8.69545Z" stroke="#0E0E0E" strokeWidth="0.5" strokeLinejoin="round"/>
</svg>
