<svg width="398" height="257" viewBox="0 0 398 257" fill="none" xmlns="http://www.w3.org/2000/svg">
<path d="M88.4506 155.07C88.4274 154.772 88.5125 154.381 88.3539 154.191C87.8043 153.522 87.1695 152.926 86.6161 152.349C86.7012 151.695 87.096 151.644 87.4985 151.66C87.8159 151.671 88.1603 151.683 88.439 151.815C90.3781 152.72 92.3674 153.537 93.9465 155.07C95.0883 156.177 96.2842 157.233 97.4879 158.27C99.6128 160.105 102.059 161.398 104.633 162.478C105.12 162.683 105.36 162.431 105.604 162.009C103.928 160.821 102.574 159.285 101.157 157.814C100.828 157.473 100.553 157.075 100.309 156.668C99.5276 155.383 99.7521 154.574 101.122 154.056C102.078 153.696 103.081 153.402 104.087 153.247C105.968 152.956 107.849 152.624 109.769 152.604C110.705 152.593 111.642 152.388 112.579 152.264C113.097 152.194 113.426 151.838 113.701 151.443C114.386 150.468 115.052 149.485 115.868 148.297C115.868 147.658 115.872 146.783 115.868 145.912C115.861 143.737 116.704 142.077 118.752 141.144C119.185 140.947 119.603 140.695 120.056 140.564C121.5 140.138 122.591 139.224 123.435 138.04C124.542 136.476 126.125 135.78 127.905 135.671C129.14 135.598 130.448 135.78 131.64 136.124C133.405 136.635 135.089 136.685 136.737 135.888C138.421 135.071 139.803 135.528 141.08 136.728C142.996 138.528 144.935 140.3 146.847 142.104C147.714 142.921 148.538 143.788 149.444 144.693C150.887 143.745 152.265 142.824 153.662 141.934C154.402 141.461 155.176 141.063 156.101 141.098C156.914 141.129 157.475 141.45 157.734 142.239C158.156 143.513 158.504 144.809 158.613 146.156C158.694 147.17 158.764 148.184 158.833 149.133C159.576 149.5 160.215 149.33 160.834 149.326C161.949 149.322 163.071 149.318 164.178 149.198C166.218 148.974 168.265 148.738 170.286 148.378C172.856 147.917 175.418 147.399 177.949 146.775C180.244 146.21 182.493 145.471 184.769 144.821C185.14 144.716 185.558 144.573 185.91 144.647C186.255 144.716 186.634 144.984 186.832 145.274C186.944 145.436 186.812 145.936 186.626 146.098C185.922 146.729 185.206 147.383 184.393 147.855C181.847 149.334 179.079 150.286 176.289 151.192C173.27 152.171 170.173 152.879 167.058 153.355C164.724 153.715 162.355 154.118 159.96 153.99C159.491 153.967 159.023 153.986 158.52 153.986C158.075 154.841 157.68 155.6 157.239 156.44C158.721 158.418 160.145 160.419 161.771 162.276C163.342 164.068 164.952 165.822 166.826 167.203C166.617 167.815 166.47 168.252 166.284 168.794C166.636 168.906 166.93 169.104 167.193 169.069C168.765 168.868 170.355 168.713 171.896 168.357C176.823 167.219 181.727 165.969 186.487 164.235C187.598 163.828 188.693 163.387 190.005 162.88C190.075 162.915 190.396 163.004 190.613 163.205C191.402 163.933 191.464 164.521 190.787 165.249C190.249 165.829 189.688 166.437 189.026 166.851C187.749 167.645 186.425 168.372 185.063 169.011C180.678 171.066 176.091 172.552 171.373 173.62C168.908 174.178 166.408 174.588 163.923 175.072C163.698 175.114 163.47 175.203 163.276 175.323C163.164 175.397 163.06 175.571 163.056 175.706C163.052 175.834 163.145 176.039 163.249 176.09C163.605 176.252 163.977 176.392 164.356 176.484C164.662 176.558 164.987 176.546 165.305 176.577C167.197 176.775 169.09 176.957 170.979 177.197C171.331 177.239 171.652 177.506 172.318 177.831C168.478 178.203 165.057 177.204 161.527 177.452C161.229 177.874 160.927 178.311 160.544 178.857C160.962 179.097 161.264 179.356 161.612 179.461C163.88 180.138 166.164 180.773 168.436 181.446C168.958 181.601 169.457 181.837 169.953 182.077C170.038 182.12 170.104 182.383 170.053 182.476C169.995 182.58 169.779 182.689 169.663 182.665C168.13 182.317 166.601 181.942 165.072 181.574C163.381 181.168 161.694 180.734 159.994 180.366C159.65 180.293 159.259 180.452 158.891 180.506C158.946 181.291 159.518 181.504 159.963 181.81C162.123 183.289 164.298 184.752 166.462 186.23C166.845 186.489 167.286 186.725 167.317 187.283C166.853 187.84 166.481 187.02 165.916 187.302C165.575 188.839 165.916 190.453 166.071 191.919C166.501 192.43 166.907 192.399 167.298 192.345C169.094 192.086 170.886 191.807 172.681 191.54C176.455 190.979 180.093 189.903 183.677 188.622C185.167 188.088 186.634 187.5 188.117 186.946C188.407 186.838 188.716 186.753 189.026 186.722C189.661 186.652 190.094 186.923 190.276 187.666C189.738 188.715 188.751 189.377 187.776 190.058C184.428 192.396 180.713 193.959 176.846 195.167C173.897 196.088 170.874 196.699 167.809 197.098C167.503 197.137 167.205 197.222 166.802 197.307C166.791 198.224 166.806 199.084 166.768 199.939C166.686 201.638 165.653 202.536 163.965 202.342C163.42 202.28 162.878 202.114 162.359 201.928C158.706 200.628 155.064 199.308 151.414 198.004C150.973 197.845 150.52 197.671 150.059 197.605C149.781 197.566 149.479 197.729 149.208 197.799C149.413 199.056 149.602 200.21 149.792 201.379C152.145 202.052 154.487 202.722 156.828 203.391C158.872 203.976 160.904 204.618 162.963 205.141C165.181 205.702 167.422 206.159 169.705 206.453C171.845 206.728 173.974 206.859 176.115 206.751C179.044 206.6 181.959 206.162 184.734 205.237C188.035 204.138 190.799 202.126 193.047 199.451C194.069 198.236 194.952 196.947 195.49 195.411C195.935 194.149 196.612 192.964 197.212 191.761C198.861 188.436 199.631 184.945 199.67 181.214C199.728 175.432 198.489 169.905 196.848 164.424C194.603 156.92 191.82 149.609 189.111 142.27C188.237 139.898 187.478 137.479 186.681 135.079C186.611 134.866 186.572 134.576 186.665 134.39C186.743 134.239 187.149 134.065 187.203 134.116C187.598 134.491 188.078 134.866 188.279 135.35C189.456 138.114 190.582 140.9 191.689 143.695C193.291 147.739 194.917 151.776 196.426 155.859C197.878 159.776 199.453 163.65 200.482 167.718C200.691 168.539 201.086 169.317 201.535 170.087C205.088 176.198 209.071 182.035 212.957 187.929C213.247 188.37 213.676 188.719 214.164 189.237C214.721 184.875 215.248 180.734 215.766 176.593C215.782 176.457 215.662 176.303 215.561 176.043C215.124 176.423 214.737 176.798 214.307 177.119C213.355 177.831 212.43 178.598 211.408 179.194C210.232 179.879 208.943 179.619 208.15 178.718C207.546 178.029 207.465 176.779 208.041 176.078C208.393 175.652 208.804 175.258 209.245 174.929C210.778 173.795 212.38 172.753 213.866 171.565C214.857 170.772 215.763 169.847 216.564 168.868C216.931 168.422 217.063 167.71 217.129 167.103C217.392 164.66 217.582 162.207 217.806 159.761C217.915 158.584 218.015 157.407 218.166 156.239C218.317 155.066 218.124 153.851 218.576 152.713C218.603 152.643 218.6 152.554 218.6 152.477C218.611 150.17 219.068 147.906 219.219 145.614C219.238 145.312 219.223 145.007 219.223 144.531C218.87 144.666 218.627 144.682 218.526 144.809C216.997 146.741 215.55 148.738 213.963 150.623C211.85 153.127 209.346 155.209 206.539 156.904C205.32 157.64 204.086 158.363 202.82 159.017C202.348 159.261 201.771 159.362 201.233 159.408C200.556 159.466 199.971 159.172 199.646 158.549C199.286 157.868 199.414 156.862 199.964 156.328C200.413 155.89 200.908 155.468 201.454 155.163C203.613 153.951 205.549 152.457 207.461 150.89C209.628 149.117 211.617 147.178 213.541 145.162C214.416 144.24 215.178 143.211 216.01 142.251C217.048 141.051 218.313 140.057 219.165 138.686C219.358 138.377 219.765 138.199 220.132 137.916C220.132 137.069 220.132 136.202 220.132 135.3C219.587 134.715 219.064 134.116 218.503 133.554C212.361 127.4 206.207 121.258 200.068 115.1C198.656 113.684 197.073 112.496 195.408 111.4C194.061 110.514 192.571 109.999 191.012 109.666C189.792 109.407 188.631 109.736 187.532 110.208C186.514 110.646 185.512 111.153 184.575 111.741C182.694 112.929 180.736 113.951 178.588 114.737C178.39 115.487 178.166 116.234 177.992 116.993C177.5 119.168 175.96 120.538 174.295 121.804C174.125 121.935 173.839 122.001 173.626 121.97C173.343 121.924 173.018 121.808 172.829 121.61C172.716 121.498 172.763 121.138 172.852 120.937C172.98 120.65 173.208 120.411 173.398 120.155C173.777 119.644 174.168 119.145 174.532 118.622C176.432 115.886 176.842 112.542 174.497 109.31C173.715 108.23 172.832 107.205 171.509 106.489C171.149 107.236 170.874 107.882 170.537 108.494C169.508 110.348 168.072 111.803 166.179 112.786C165.324 113.231 164.411 113.444 163.435 113.483C160.672 113.591 158.063 112.937 155.613 111.753C153.326 110.649 151.104 109.411 148.902 108.141C146.216 106.593 143.545 105.01 141.227 102.92C140.163 101.96 139.036 101.047 138.115 99.9634C135.747 97.1806 133.479 94.3126 131.067 91.3557C129.457 91.1854 127.963 91.9014 126.489 92.6755C125.165 93.3721 124.286 94.4636 123.694 95.8221C122.998 97.4205 122.463 99.0577 122.223 100.799C122.042 102.135 121.867 103.458 121.833 104.809C121.821 105.235 121.507 105.649 121.333 106.055C119.011 105.413 116.929 104.48 114.831 103.582C112.137 102.433 109.42 101.349 106.711 100.238C106.49 100.149 106.262 100.083 106.038 99.9982C101.447 98.2914 97.217 99.1777 93.0873 101.577C88.3577 104.321 85.2576 108.354 83.1211 113.343C85.4937 113.877 87.3437 115.224 88.977 116.827C92.2707 120.047 96.2107 122.195 100.387 123.983C101.834 124.602 103.309 125.159 104.776 125.732C105.31 125.941 105.763 126.224 105.98 126.808C105.647 127.714 105.012 128.144 104.013 128.202C102.005 128.325 100.054 127.993 98.1498 127.466C94.4613 126.452 90.9896 124.978 87.8855 122.671C85.6175 120.987 83.6823 119.06 82.4128 116.517C82.3122 116.316 82.2077 116.111 82.0916 115.917C82.0645 115.871 81.9677 115.867 81.8284 115.813C79.541 120.395 77.5091 125.105 75.1985 129.746C76.7195 130.922 78.078 132.006 79.4675 133.047C80.7989 134.046 82.1574 135.01 83.512 135.973C86.6896 138.241 90.1729 139.894 93.8266 141.241C95.6031 141.895 97.3138 142.731 99.0438 143.509C99.396 143.668 99.7327 143.9 100.027 144.159C100.457 144.542 100.542 145.703 99.7289 145.951C99.2799 146.087 98.8348 146.28 98.3743 146.319C96.3771 146.493 94.411 146.21 92.4835 145.73C88.35 144.697 84.6189 142.793 81.2208 140.258C79.0572 138.644 76.9285 136.972 75.0282 135.033C74.5869 134.58 74.1922 134.081 73.6929 133.504C73.4607 133.814 73.182 134.088 73.0194 134.417C71.5371 137.386 70.078 140.366 68.6034 143.339C68.3982 143.757 68.166 144.163 67.9299 144.6C67.5506 144.573 67.2294 144.589 66.9275 144.519C65.5729 144.213 65.4413 143.904 65.8322 142.565C66.9739 138.679 68.7001 135.037 70.4418 131.41C72.9111 126.274 75.5158 121.2 78.078 116.107C78.4689 115.333 78.9334 114.597 79.3359 113.893C79.3127 113.359 79.0108 113.138 78.616 113.003C74.258 111.536 70.8559 108.796 67.9918 105.25C66.1341 102.951 64.4775 100.532 63.1036 97.9353C61.1374 94.212 59.8215 90.2874 59.1209 86.092C58.2811 81.0643 59.7944 74.5621 62.6585 70.7382C64.6749 68.0444 67.1791 65.8422 70.0431 64.0386C73.3484 61.9602 76.9324 60.474 80.4893 58.9181C83.3882 57.6525 86.2948 56.3946 89.1821 55.098C91.2179 54.1846 93.1183 53.0274 94.8716 51.6457C97.4144 49.6447 99.3302 47.1096 100.832 44.2765C102.775 40.6267 104.141 36.7486 105.314 32.7815C106.452 28.9305 107.551 25.0678 109.029 21.3174C111.53 14.9855 115.543 9.84953 121.14 6.03721C124.557 3.71112 128.381 2.20942 132.476 1.3889C135.963 0.692233 139.454 0.75416 142.942 1.0754C145.624 1.3231 148.178 2.22103 150.671 3.25055C153.481 4.41166 155.996 6.07205 158.45 7.82533C159.348 8.46781 160.103 9.31155 160.846 9.9966C162.204 9.84566 163.451 9.64053 164.709 9.57473C168.014 9.40056 171.137 10.2637 174.191 11.4132C177.26 12.5704 180.074 14.1843 182.624 16.2473C184.877 18.0663 186.758 20.1757 188.105 22.7727C189.889 26.2173 190.775 29.8284 190.841 33.7181C190.915 37.9678 190.071 42.0588 189.165 46.1575C188.825 47.6979 188.422 49.2228 188.051 50.7593C187.997 50.9877 187.884 51.2586 187.954 51.456C188.488 52.9655 188.209 54.6104 188.767 56.1121C188.902 56.4759 189.011 56.8668 189.208 57.1958C190.849 59.9089 193.156 61.7164 196.333 62.2427C197.816 62.4866 199.317 62.6143 200.811 62.7846C203.335 63.071 205.839 63.4542 208.246 64.2902C209.369 64.6811 210.429 65.2074 211.42 65.8848C213.448 67.2703 214.853 69.0933 215.774 71.3807C216.645 73.5403 217.175 75.731 217.152 78.0571C217.137 79.6517 217.206 81.254 217.094 82.8409C216.862 86.1578 215.968 89.3276 214.834 92.4471C213.522 96.0582 211.59 99.3286 209.388 102.433C206.826 106.036 203.749 109.117 199.697 111.083C199.569 111.145 199.488 111.296 199.36 111.435C199.298 111.872 199.677 112.093 199.948 112.364C203.602 116.041 207.286 119.691 210.905 123.402C213.576 126.139 216.165 128.956 218.781 131.747C219.312 132.312 219.803 132.912 220.453 133.659C220.662 132.529 220.933 131.615 220.98 130.69C221.073 128.867 221.34 127.068 221.63 125.276C221.905 123.569 221.932 121.823 222.42 120.147C222.594 119.551 222.191 119.091 222.056 118.564C221.8 117.574 222.362 116.842 223.391 116.745C223.627 116.722 223.867 116.73 224.107 116.718C232.699 116.277 241.303 116.443 249.903 116.335C255.167 116.269 260.438 116.389 265.694 116.211C275.568 115.871 285.445 115.983 295.322 115.905C305.215 115.828 315.103 115.793 324.996 115.782C329.861 115.774 334.726 115.882 339.591 115.89C340.853 115.89 341.941 116.08 342.68 117.233C342.838 117.481 343.187 117.605 343.311 117.694C343.361 118.653 343.396 119.362 343.299 120.337C343.179 120.712 343.191 120.821 343.206 120.929C343.365 120.875 343.52 120.817 343.678 120.763C346.275 120.488 348.861 120.066 351.469 120.105C353.331 117.995 355.433 116.316 357.739 114.868C358.711 114.261 359.713 113.881 360.851 113.831C362.09 113.773 362.976 114.322 363.615 115.36C364.288 116.459 364.652 117.678 364.907 118.917C365.147 120.074 365.267 121.262 365.368 122.442C365.515 124.126 365.124 125.736 364.559 127.373C365.662 128.411 367.001 129.092 368.251 129.901C370.651 131.449 373.078 132.962 375.47 134.526C376.197 135.002 376.886 135.555 377.521 136.151C378.636 137.196 378.643 137.483 377.858 139.147C378.175 139.526 378.636 139.882 378.825 140.351C379.026 140.838 378.964 141.43 379.023 141.984C379.189 142.359 379.564 142.181 379.831 142.286C381.182 142.812 381.48 143.455 381.039 144.879C380.621 146.238 380.168 147.588 379.688 149.078C380.06 149.144 380.369 149.295 380.613 149.222C381.151 149.059 381.678 148.97 382.239 148.978C383.756 148.993 385.269 148.97 386.786 148.978C386.992 148.978 387.201 149.094 387.383 149.152C387.383 149.299 387.41 149.434 387.379 149.45C387.174 149.551 386.961 149.674 386.744 149.698C384.298 149.938 381.848 150.158 379.29 150.394C379.038 150.901 378.771 151.443 378.461 152.066C379.53 152.279 380.524 152.326 381.418 152.101C382.765 151.764 384.104 151.908 385.443 151.877C385.769 151.869 386.101 152.19 386.663 152.48C383.888 152.79 381.395 153.142 378.868 153.181C377.892 153.196 377.881 153.251 377.471 154.528C378.376 154.756 379.262 154.996 380.207 155.074C382.177 155.232 384.143 155.461 386.105 155.697C386.272 155.716 386.407 156.01 386.686 156.324C383.292 156.633 380.102 155.685 376.789 155.933C374.982 159.254 373.279 162.675 370.395 165.299C370.763 165.833 371.278 165.64 371.634 165.512C372.753 165.106 373.871 164.734 375.04 164.517C375.346 164.459 375.644 164.32 375.953 164.297C377.347 164.181 378.407 164.637 379.069 165.973C379.917 167.679 380.586 169.448 381.244 171.228C381.465 171.821 381.623 172.436 381.848 173.024C382.39 174.433 382.951 175.83 382.657 177.696C384.244 176.597 385.277 175.401 386.527 174.468C387.89 173.45 388.679 172.115 389.182 170.431C389.786 168.403 390.645 166.41 391.892 164.645C392.259 164.126 392.623 163.592 393.076 163.155C394.485 161.793 396.281 162.156 397.182 163.933C397.658 164.869 397.817 165.903 397.898 166.909C398.1 169.452 397.654 171.968 397.345 174.48C397.19 175.73 396.865 176.957 396.613 178.191C396.253 179.945 395.564 181.512 394.094 182.638C393.447 183.13 393.022 183.78 392.635 184.496C390.483 188.463 388.207 192.357 385.583 196.03C383.787 198.546 381.867 200.972 380.009 203.445C378.09 206.004 375.756 208.175 373.507 210.428C372.377 211.558 371.092 212.487 369.792 213.408C368.433 214.368 367.117 215.389 365.836 216.45C365.496 216.732 365.31 217.228 365.116 217.657C364.249 219.604 363.514 221.621 362.531 223.509C359.849 228.645 357.105 233.758 353.513 238.341C352.189 240.032 350.8 241.669 349.422 243.357C349.53 243.879 350.01 243.678 350.331 243.779C350.707 243.895 351.082 244.022 351.465 244.104C353.946 244.618 356.435 245.091 358.904 245.644C360.449 245.989 361.939 246.534 363.309 247.339C363.851 247.657 364.342 248.071 364.822 248.481C365.786 249.302 365.825 251.322 364.71 252.344C363.8 253.184 362.717 253.671 361.587 254.004C360.151 254.426 358.668 254.732 357.186 254.956C355.386 255.227 353.559 255.332 351.752 255.56C348.988 255.912 346.198 255.893 343.434 256.168C341.372 256.373 339.313 256.411 337.254 256.462C329.056 256.659 320.855 257.104 312.653 256.802C308.919 256.663 305.187 256.609 301.453 256.516C299.378 256.466 297.304 256.489 295.233 256.415C292.617 256.322 290 256.152 287.38 256.036C286.107 255.978 284.825 256.005 283.552 255.939C281.652 255.839 279.755 255.672 277.859 255.568C274.05 255.351 270.226 255.301 266.433 254.914C263.202 254.585 259.951 254.542 256.727 254.112C253.901 253.737 251.053 253.551 248.216 253.288C245.851 253.067 243.509 252.464 241.102 252.727C240.792 252.762 240.425 252.758 240.161 252.622C238.915 251.984 237.514 252.019 236.206 251.86C232.661 251.426 229.142 250.83 225.644 250.157C222.942 249.634 220.229 249.054 217.659 247.962C215.596 247.084 215.546 247.107 214.319 245.168C213.56 244.967 212.755 244.87 212.07 244.529C211.377 244.185 210.805 243.601 210.104 243.066C208.467 244.139 206.648 244.847 204.674 245.215C201.965 245.722 199.48 245.331 197.262 243.639C196.206 242.834 195.536 241.82 195.602 240.411C195.633 239.738 195.892 239.165 196.252 238.646C196.608 238.128 197.065 237.675 197.576 237.083C194.677 236.049 191.728 235.655 188.871 234.908C185.895 234.13 182.922 233.336 179.954 232.531C177.051 231.746 174.152 230.941 171.249 230.151C168.277 229.342 165.301 228.549 162.328 227.728C159.445 226.931 156.573 226.11 153.616 225.282C153.392 226.064 153.171 226.726 153.02 227.399C152.141 231.304 150.264 234.656 147.327 237.365C146.286 238.329 145.09 239.154 143.874 239.889C142.044 240.992 140.12 241.925 138.104 242.668C136.172 243.376 134.233 244.046 132.263 244.649C129.608 245.462 126.914 246.035 124.182 246.507C121.047 247.049 117.889 247.239 114.727 247.51C108.685 248.028 102.636 247.939 96.59 247.962C89.9678 247.986 83.3495 247.893 76.7273 247.808C75.2256 247.788 73.7277 247.595 72.2299 247.448C70.7359 247.301 69.2342 247.351 67.7325 247.057C65.8709 246.689 63.9434 246.65 62.0586 246.383C59.7944 246.062 57.5496 245.64 55.3048 245.207C50.5442 244.293 45.9423 242.877 41.4217 241.166C39.7227 240.524 38.0507 239.8 36.3903 239.064C33.7197 237.88 31.0646 236.657 28.4134 235.422C28.2431 235.341 28.1232 235.066 28.0651 234.861C28.0419 234.776 28.2199 234.583 28.3438 234.513C28.6766 234.331 28.9669 234.153 29.4352 234.316C30.9911 234.861 32.6128 235.233 34.1571 235.806C39.2853 237.706 44.4793 239.405 49.805 240.628C53.0367 241.371 56.2994 242.01 59.6202 242.316C61.9037 242.525 64.164 242.943 66.4476 243.117C69.8574 243.376 73.2749 243.512 76.6886 243.682C77.6445 243.728 78.6044 243.721 79.5604 243.728C80.8376 243.736 82.1148 243.771 83.3882 243.732C84.7118 243.69 85.6407 242.656 86.8444 242.258C90.0413 241.205 92.8822 239.463 95.5566 237.462C97.7202 235.84 99.7792 234.087 101.505 231.974C102.21 231.115 103.065 230.376 103.831 229.567C104.323 229.048 104.362 228.405 103.971 227.829C103.526 227.175 103.073 226.528 102.612 225.89C102.074 225.143 101.296 224.721 100.449 224.493C98.6142 224.001 96.7797 223.463 94.8599 223.405C94.2059 223.386 93.5943 223.324 93.0409 222.704C93.2189 222.418 93.4163 222.105 93.6176 221.787C93.5092 221.698 93.4008 221.547 93.2731 221.528C93.0409 221.489 92.7932 221.512 92.5571 221.539C89.813 221.865 87.0495 222.085 84.3287 222.553C81.066 223.115 77.8419 223.889 74.6024 224.562C72.6053 224.976 70.6121 225.394 68.6072 225.758C68.0654 225.859 67.4887 225.812 66.9352 225.762C66.7494 225.747 66.5056 225.53 66.436 225.348C66.3005 224.996 66.5675 224.775 66.8578 224.64C66.9972 224.574 67.1752 224.613 67.3261 224.566C71.1617 223.37 75.0204 222.248 78.8908 221.172C81.7781 220.367 84.6654 219.624 87.6417 219.213C88.737 219.062 89.8169 218.896 90.9238 218.85C92.0617 218.799 93.0873 219.264 94.1826 219.407C94.7516 219.48 95.3244 219.964 95.4212 220.746C95.1231 220.912 94.8058 221.09 94.4845 221.269C94.5619 221.361 94.6393 221.454 94.7167 221.547C95.7501 221.547 96.7835 221.528 97.813 221.551C99.0864 221.582 100.375 221.559 101.633 221.733C103.235 221.954 104.702 222.577 105.685 223.958C106.343 224.887 106.781 225.886 106.169 227.043C106.076 227.217 106.107 227.461 106.065 227.786C106.672 227.651 107.164 227.492 107.667 227.442C108.139 227.395 108.623 227.473 109.099 227.473C111.731 227.48 114.367 227.535 116.995 227.465C120.408 227.376 123.737 226.826 126.98 225.677C129.151 224.907 130.94 223.703 132.372 221.926C132.619 221.617 132.813 221.249 133.099 220.986C133.935 220.224 134.833 219.6 136.076 219.747C136.691 219.821 137.318 219.759 137.929 219.759C138.765 217.069 139.57 212.893 139.57 211.229C138.971 211.043 138.549 211.484 138.096 211.709C134.702 213.419 131.269 215.041 127.719 216.407C126.616 216.833 125.517 217.282 124.379 217.603C123.686 217.801 122.928 217.805 122.525 216.938C122.552 216.415 122.928 216.117 123.354 215.904C124.557 215.3 125.773 214.716 126.988 214.135C130.282 212.568 133.575 211 136.877 209.448C137.519 209.147 138.2 208.934 138.847 208.643C140.325 207.985 141.626 208.295 142.81 209.317C143.108 209.572 143.402 209.832 143.839 210.215C143.944 209.789 144.064 209.518 144.068 209.251C144.079 207.258 144.114 205.265 144.045 203.271C144.021 202.59 144.242 202.021 144.49 201.456C144.966 200.365 145.922 200.078 147.033 200.082C147.129 200.082 147.319 199.703 147.296 199.521C147.273 199.339 147.064 199.103 146.885 199.037C146.68 198.964 146.413 199.033 146.181 199.076C145.171 199.265 144.161 199.474 143.151 199.672C140.476 200.19 137.778 200.148 135.077 200.067C133.966 200.032 133.138 199.471 132.48 198.476C131.919 198.716 131.4 198.89 130.928 199.149C127.251 201.181 123.59 203.236 119.917 205.272C119.224 205.655 118.516 206.023 117.792 206.344C116.267 207.018 114.878 206.441 114.386 204.874C114.131 204.053 113.995 203.178 113.933 202.319C113.759 199.788 113.333 197.28 113.325 194.737C113.325 194.431 113.225 194.126 113.155 193.731C112.207 193.913 111.557 194.478 110.81 194.884C110.194 195.217 109.598 195.983 108.7 195.546C108.731 195.337 108.704 195.128 108.786 195.074C109.687 194.427 110.554 193.7 111.534 193.204C112.849 192.539 113.515 191.521 113.72 189.988C113.144 189.686 112.528 189.369 112.006 189.094C110.632 189.319 109.691 190.398 108.317 190.406C108.24 189.915 108.542 189.69 108.836 189.512C109.517 189.102 110.245 188.773 110.91 188.343C111.278 188.103 111.549 187.724 111.897 187.372C110.686 186.679 109.61 186.033 108.499 185.448C108.17 185.274 107.752 185.243 107.365 185.208C106.897 185.17 106.425 185.201 105.952 185.201C105.836 184.717 106.328 184.817 106.471 184.546C106.421 184.039 105.887 183.974 105.573 183.687C104.834 183.01 104.776 182.553 105.221 181.365C105.202 180.904 104.795 180.75 104.482 180.552C103.564 179.972 103.189 179.062 103.437 178.114C103.746 176.941 103.75 175.761 103.886 174.584C104.025 173.408 104.188 172.239 104.358 171.066C104.675 168.879 105 166.696 105.325 164.486C105.074 164.355 104.884 164.173 104.679 164.157C101.823 163.952 99.3109 162.795 96.9499 161.297C95.2044 160.194 93.5943 158.897 92.1197 157.434C91.3844 156.707 90.6219 155.999 89.8207 155.344C89.5382 155.116 89.1047 155.074 88.5706 155.012C88.4197 155.039 88.4506 155.07 88.4506 155.07ZM324.505 168.295C324.156 169.08 323.328 169.32 322.728 169.812C321.594 170.737 320.243 171.399 319.214 172.587C319.732 172.804 320.081 172.691 320.425 172.448C321.524 171.677 322.616 170.892 323.734 170.153C326.045 168.631 328.375 167.141 330.685 165.616C330.984 165.419 331.204 165.102 331.568 164.73C331.162 164.664 330.906 164.548 330.724 164.614C330.283 164.777 329.849 164.993 329.451 165.245C328.112 166.089 326.784 166.94 325.468 167.823C325.101 168.066 324.76 168.14 324.249 167.714C323.626 167.141 322.999 166.572 322.314 165.945C322.608 165.771 322.786 165.64 322.983 165.558C325.395 164.552 327.806 163.557 330.213 162.547C330.329 162.501 330.48 162.253 330.446 162.191C330.349 162.017 330.148 161.746 330.02 161.765C329.404 161.847 328.77 161.936 328.197 162.16C325.778 163.124 323.382 164.142 320.909 165.164C320.518 164.928 320.119 164.688 319.732 164.455C320.174 163.867 320.588 163.314 320.986 162.779C320.127 161.816 320.127 161.808 319.636 161.785C318.846 161.746 318.053 161.723 317.166 161.688C317.592 160.655 318.861 160.349 319.001 159.257C318.447 158.433 317.604 158.193 316.76 157.957C316.392 157.852 316.009 157.767 315.668 157.597C315.363 157.442 315.138 157.357 314.891 157.829C315.398 158.174 315.905 158.538 316.435 158.87C316.76 159.076 317.159 159.188 317.22 159.95C316.76 160.349 316.129 160.837 315.572 161.398C315.119 161.854 315.301 162.52 315.932 162.714C316.663 162.938 317.426 163.066 318.254 163.256C317.662 164.084 317.638 164.784 318.397 165.419C318.54 165.539 318.571 165.783 318.672 166.003C317.755 166.812 316.648 167.076 315.703 167.625C315.436 167.78 315.235 168.063 315.653 168.345C316.617 168.02 317.638 167.795 318.552 167.343C319.806 166.723 320.979 166.665 322.147 167.428C322.852 167.888 323.614 167.966 324.505 168.295ZM273.017 195.732C272.897 195.132 272.781 194.532 272.614 193.708C272.065 194.474 271.616 195.027 271.24 195.627C269.971 197.644 268.713 199.672 267.471 201.704C266.6 203.128 265.795 204.591 264.889 205.996C264.231 207.014 263.411 207.885 262.087 208.024C260.628 207.029 260.612 207.037 259.916 205.605C258.909 203.534 257.938 201.444 256.928 199.378C256.769 199.056 256.467 198.809 256.165 198.449C255.875 198.801 255.639 199.022 255.488 199.289C254.757 200.608 254.029 201.928 253.34 203.271C252.845 204.235 252.225 205.009 251.103 205.16C248.912 204.638 247.407 202.695 245.135 202.292C244.705 203.322 244.899 204.289 245.05 205.206C245.437 207.556 245.777 209.924 246.397 212.216C247.264 215.417 247.387 218.648 247.291 221.919C247.283 222.236 247.279 222.561 247.213 222.871C246.927 224.245 245.719 224.798 244.492 224.109C243.885 223.769 243.304 223.386 242.604 222.956C242.441 223.618 242.205 224.14 242.209 224.659C242.217 225.387 241.369 225.259 241.23 225.828C241.671 226.559 242.116 227.31 242.573 228.053C246.493 234.412 250.402 240.783 254.342 247.13C256.483 250.575 256.951 250.85 260.953 251.337C262.683 251.546 264.463 251.55 266.143 251.961C267.575 252.313 268.787 251.837 270.079 251.558C270.192 251.535 270.315 251.334 270.335 251.202C270.35 251.082 270.265 250.904 270.165 250.815C269.986 250.66 269.781 250.513 269.565 250.436C268.45 250.052 267.328 249.693 266.263 249.34C264.85 250.676 264.185 250.544 263.716 248.942C263.693 248.864 263.693 248.783 263.678 248.706C263.024 245.764 262.393 242.819 261.708 239.885C261.023 236.955 260.28 234.041 259.525 230.975C259.513 230.999 259.567 230.855 259.629 230.716C260.5 228.835 261.243 228.448 263.178 228.862C263.875 229.013 264.564 229.222 265.265 229.307C268.098 229.656 270.939 229.965 273.772 230.294C275.111 230.449 276.45 230.615 277.789 230.778C281.253 231.208 284.713 231.657 288.177 232.059C291.173 232.407 294.172 232.756 297.18 233C300.899 233.301 304.611 233.762 308.33 233.932C314.372 234.211 320.421 234.389 326.467 233.689C329.079 233.387 331.634 232.891 334.177 232.291C336.089 231.839 337.981 231.293 340.009 230.755C340.056 231.088 340.238 231.482 340.114 231.649C339.661 232.26 339.568 232.911 339.525 233.642C339.44 235.066 339.285 236.491 339.069 237.899C338.682 240.408 338.213 242.9 337.799 245.404C337.579 246.736 337.397 248.075 337.226 249.414C337.192 249.693 337.292 249.987 337.335 250.289C337.695 250.327 337.923 250.389 338.148 250.366C340.121 250.165 342.099 249.975 344.069 249.708C344.545 249.642 345.141 249.607 345.466 248.976C344.932 248.481 344.41 247.997 343.891 247.506C343.438 247.076 343.334 246.546 343.52 245.973C343.64 245.602 343.767 245.207 343.992 244.893C344.592 244.053 345.226 243.233 345.884 242.439C347.812 240.109 349.836 237.857 351.682 235.465C355.235 230.852 358.084 225.789 360.747 220.63C363.959 214.41 366.343 207.85 368.514 201.208C370.024 196.595 371.077 191.881 371.866 187.101C372.071 185.851 372.42 184.624 372.671 183.381C372.876 182.379 373.438 181.651 374.301 181.137C374.618 180.947 374.935 180.753 375.326 180.517C374.688 179.329 374.096 178.222 373.554 177.208C371.158 176.434 368.944 175.59 366.699 175.126C365.844 175.823 365.097 176.415 364.369 177.026C363.019 178.156 361.505 179.027 359.949 179.832C359.164 180.239 358.332 180.486 357.422 180.351C357.124 180.308 356.814 180.343 356.582 180.343C356.28 180.684 356.056 180.912 355.862 181.164C353.01 184.895 350.204 188.661 347.297 192.345C346.117 193.839 344.805 195.252 343.404 196.541C342.099 197.737 340.319 197.481 339.216 196.065C338.535 195.19 337.908 194.253 337.397 193.27C335.462 189.528 333.84 185.649 332.342 181.713C331.967 180.723 331.889 179.701 331.99 178.663C332.056 177.99 332.35 177.398 332.961 177.108C334.029 176.597 335.102 176.032 336.236 175.741C338.302 175.207 340.416 174.859 342.482 174.437C342.417 174.363 342.339 174.197 342.211 174.147C340.481 173.481 338.608 173.671 336.832 173.253C336.603 173.199 336.205 173.435 336.027 173.647C335.434 174.367 334.776 174.096 334.107 173.918C333.987 173.508 333.882 173.14 333.762 172.738C332.988 172.564 332.218 172.409 331.456 172.215C331.08 172.123 330.697 171.991 330.624 171.472C331.688 170.435 332.779 169.386 333.848 168.318C334.06 168.105 334.196 167.807 334.351 167.54C334.378 167.494 334.343 167.362 334.293 167.331C334.169 167.254 333.956 167.122 333.902 167.165C333.224 167.71 332.57 168.287 331.905 168.856C331.119 169.526 330.306 170.168 329.555 170.872C329.122 171.279 328.731 171.519 328.088 171.426C327.771 171.383 327.225 171.646 327.09 171.921C326.73 172.649 326.053 172.85 325.441 173.179C324.953 173.442 324.431 173.655 323.959 173.945C319.694 176.57 315.413 179.174 311.183 181.853C307.351 184.279 303.574 186.791 299.769 189.257C299.649 189.334 299.475 189.326 299.2 189.384C298.871 189.055 298.496 188.676 298.081 188.258C298.306 187.755 298.476 187.31 298.701 186.9C298.89 186.551 299.223 186.269 299.359 185.905C299.502 185.518 300.082 185.228 299.711 184.674C299.475 184.674 299.223 184.608 299.026 184.686C297.551 185.259 296.046 185.785 294.621 186.47C290.016 188.688 285.751 191.459 281.687 194.544C279.976 195.84 278.331 197.23 276.663 198.588C276.106 199.041 275.552 199.494 274.809 199.61C274.031 199.734 273.319 199.277 273.238 198.518C273.149 197.725 273.141 196.928 273.017 195.732ZM321.133 142.913C321.935 141.299 322.91 139.766 323.514 138.005C323.161 137.924 322.933 137.823 322.705 137.823C321.342 137.819 320.034 137.452 318.707 137.227C318.022 137.111 317.333 136.848 316.717 136.511C315.529 135.865 315.363 134.626 316.377 133.756C317.151 133.09 318.037 132.533 318.931 132.029C321.559 130.543 324.307 129.312 327.136 128.252C328.472 127.753 329.776 127.246 330.805 126.143C331.386 125.523 332.222 125.129 332.981 124.695C334.916 123.588 336.948 122.706 339.08 122.052C339.897 121.8 340.702 121.51 341.77 121.15C341.263 120.089 342.223 119.191 341.844 118.046C341.399 118.073 341.016 118.088 340.632 118.115C338.655 118.259 336.677 118.46 334.699 118.537C332.47 118.626 330.233 118.595 327.999 118.63C319.636 118.758 311.272 118.905 302.908 119.013C299.32 119.06 295.728 119.002 292.14 119.06C280.986 119.242 269.828 119.122 258.669 119.393C248.146 119.652 237.611 119.493 227.08 119.524C226.383 119.528 225.671 119.427 224.885 119.667C224.819 120.902 224.87 122.102 224.664 123.251C224.243 125.601 224.274 127.989 223.89 130.346C223.395 133.399 223.167 136.5 222.811 139.577C222.629 141.152 222.423 142.723 222.199 144.291C221.8 147.12 221.371 149.945 220.976 152.775C220.604 155.449 220.275 158.131 219.896 160.806C219.505 163.55 219.014 166.282 218.669 169.034C218.232 172.502 217.895 175.981 217.52 179.457C217.349 181.036 217.195 182.615 217.028 184.19C216.719 187.109 216.405 190.031 216.099 192.949C216.068 193.232 215.991 193.568 216.401 193.684C216.475 193.65 216.572 193.634 216.618 193.576C219.61 189.957 222.571 186.311 225.593 182.72C228.26 179.554 230.861 176.318 234.135 173.729C234.902 173.125 235.451 172.386 235.916 171.538C236.334 170.776 236.798 170.005 237.371 169.359C238.873 167.675 240.606 166.545 243.029 167.331C243.548 167.501 244.129 167.482 244.682 167.555C245.499 167.66 246.118 167.335 246.404 166.588C246.753 165.682 247.418 165.253 248.27 164.889C251.115 163.677 253.994 162.563 256.936 161.622C261.77 160.078 266.685 158.867 271.744 158.317C272.564 158.228 273.338 158.081 274.379 157.396C273.35 157.396 272.727 157.396 272.104 157.396C271.55 157.396 270.989 157.427 270.439 157.369C270.261 157.349 270.017 157.106 269.975 156.927C269.932 156.738 270.041 156.451 270.18 156.297C270.385 156.064 270.66 155.871 270.939 155.732C272.08 155.159 273.319 154.841 274.565 154.698C277.588 154.35 280.626 154.478 283.645 154.729C285.611 154.892 287.558 155.306 289.512 155.612C291.235 155.879 292.946 156.2 294.676 156.409C296.564 156.637 298.469 156.765 300.369 156.908C300.555 156.924 300.93 156.691 300.918 156.626C300.864 156.347 300.775 155.956 300.57 155.844C300.16 155.627 299.657 155.6 299.215 155.434C298.856 155.298 298.492 155.116 298.198 154.872C298.058 154.756 297.985 154.431 298.039 154.241C298.093 154.044 298.325 153.769 298.496 153.754C299.126 153.7 299.804 153.607 300.4 153.765C302.122 154.222 303.872 154.106 305.613 154.187C307.278 154.265 308.938 154.168 310.606 154.431C311.833 154.625 313.13 154.656 314.345 154.346C316.799 150.727 318.904 146.992 321.133 142.913ZM144.459 52.3269C143.162 52.8029 142.082 53.6002 141.134 54.591C140.585 55.1677 140.043 55.756 139.439 56.2669C139.238 56.4372 138.831 56.4681 138.549 56.414C138.212 56.3482 138.123 55.9998 138.104 55.667C138.08 55.2374 138.448 54.7226 137.806 54.4014C136.025 54.6297 134.198 54.7807 132.406 55.1096C130.022 55.547 127.681 55.4348 125.312 55.0361C123.412 54.7149 121.786 53.9524 120.733 52.3385C120.281 51.6457 119.723 51.3206 119.027 51.2238C118.163 51.1077 117.266 51.0458 116.41 51.1619C114.866 51.3747 113.79 52.292 113.322 53.7899C112.942 55.009 112.691 56.263 112.849 57.5557C112.977 58.5775 113.097 59.607 113.302 60.6172C113.976 63.9147 115.129 67.0226 117.053 69.817C117.598 70.6066 118.148 71.3652 118.976 71.729C119.936 71.5819 120.532 71.0594 121.089 70.4866C121.422 70.146 121.716 69.7629 122.053 69.4261C122.881 68.5979 124.089 68.6985 124.693 69.6855C124.979 70.1499 125.126 70.7034 125.316 71.222C126.094 73.3894 126.837 75.5684 127.634 77.7281C129.6 83.0615 132.248 88.0349 135.843 92.451C138.518 95.733 141.459 98.7713 145.128 100.985C150.063 103.961 155.334 105.761 161.186 105.374C162.053 105.316 162.92 105.173 163.768 104.991C167.286 104.24 170.224 102.371 172.879 100.045C176.757 96.6503 179.822 92.5903 182.203 88.0388C185.082 82.5351 186.483 76.5941 186.886 70.4402C187.192 65.7532 187.211 61.0584 186.634 56.3636C186.266 53.3641 185.783 50.3955 185.214 47.4308C184.281 42.5658 182.652 37.9329 180.693 33.4123C179.818 31.3959 178.804 29.4297 177.512 27.6455C177.295 27.75 177.117 27.7771 177.036 27.8816C175.426 30.0567 173.649 32.0964 171.888 34.1555C169.543 36.8957 166.926 39.3379 164.078 41.5169C160.215 44.47 156.074 46.9973 151.758 49.2344C151.371 49.4357 151.023 49.7143 150.678 49.9388C152.068 50.5503 153.392 51.0883 154.669 51.7192C155.304 52.0327 155.872 52.4894 156.426 52.9422C156.654 53.128 156.817 53.4493 156.898 53.7357C156.952 53.9214 156.867 54.2272 156.732 54.3588C156.596 54.4865 156.302 54.5291 156.101 54.4904C155.88 54.4478 155.683 54.2775 155.482 54.1537C152.176 52.1411 148.666 51.2393 144.459 52.3269ZM120.447 152.457C122.34 154.977 123.145 155.793 124.681 156.769C124.886 156.359 124.712 155.999 124.55 155.639C123.299 152.891 122.069 150.135 120.795 147.399C120.118 145.943 120.312 145.545 121.833 145.405C122.641 145.332 123.234 145.607 123.617 146.311C123.88 146.799 124.12 147.298 124.36 147.797C125.293 149.729 126.202 151.675 127.162 153.595C127.657 154.59 128.223 155.553 128.791 156.509C128.931 156.742 129.148 157.04 129.6 156.757C129.728 156.002 129.5 155.255 129.318 154.481C128.617 151.47 127.897 148.459 127.379 145.405C127.263 144.713 127.371 144.14 127.685 143.582C128.021 142.983 128.621 142.789 129.213 142.754C130.073 143.091 130.518 143.726 130.796 144.511C131.195 145.634 131.574 146.764 132.016 147.867C133.107 150.596 134.218 153.313 135.344 156.03C135.522 156.459 135.673 156.947 136.308 157.202C136.052 155.333 135.828 153.529 135.561 151.73C135.189 149.218 134.775 146.717 134.411 144.206C134.264 143.184 134.462 142.952 135.688 142.367C136.451 142.677 136.644 143.312 136.823 144.055C137.821 148.223 139.036 152.329 140.6 156.324C140.797 156.827 140.809 157.485 141.626 157.729C141.568 156.498 141.595 155.302 141.44 154.129C141.084 151.459 140.631 148.8 140.221 146.137C140.004 144.724 139.779 143.312 139.586 141.899C139.547 141.605 139.605 141.283 139.679 140.989C139.702 140.896 139.911 140.834 140.047 140.784C140.108 140.765 140.232 140.788 140.259 140.834C140.414 141.102 140.588 141.365 140.685 141.655C141.351 143.613 141.649 145.657 141.989 147.689C142.473 150.584 142.911 153.483 143.313 156.389C143.441 157.33 143.425 158.298 143.398 159.254C143.371 160.252 142.864 161.034 142.202 161.119C141.467 161.212 141.03 160.674 140.67 160.155C140.186 159.455 139.783 158.692 139.183 157.686C139.152 158.63 139.114 159.257 139.114 159.884C139.118 161.227 138.564 162.164 137.268 162.567C136.366 162.292 135.654 161.854 135.201 161.026C134.822 160.33 134.373 159.672 133.927 159.01C133.703 158.681 133.424 158.387 133.057 157.942C133.057 158.808 133.045 159.443 133.061 160.082C133.095 161.491 132.445 162.334 131.029 162.582C128.807 162.056 127.975 159.962 126.609 158.483C125.451 159.203 124.437 159.072 123.501 158.274C123.017 157.86 122.541 157.431 122.088 156.986C120.319 155.252 118.729 153.374 117.386 151.284C116.762 150.317 116.027 150.34 115.334 151.3C115.056 151.687 114.823 152.109 114.545 152.496C114.115 153.092 113.596 153.564 112.818 153.665C112.195 153.746 111.576 153.92 110.953 153.955C108.166 154.094 105.426 154.52 102.709 155.128C102.361 155.205 101.931 155.317 101.904 155.96C102.817 156.842 103.766 157.81 104.776 158.708C105.782 159.602 106.85 160.419 107.861 161.247C108.162 163.414 107.659 165.45 107.431 167.474C107.04 170.938 106.355 174.367 105.801 177.812C105.716 178.327 105.933 178.756 106.413 178.981C106.99 179.248 107.59 179.453 108.162 179.728C109.142 180.196 109.382 180.804 109.01 181.872C108.917 182.135 108.708 182.356 108.557 182.588C109.196 183.308 109.912 183.517 110.763 183.3C111.069 183.223 111.379 183.153 111.688 183.072C114.15 182.441 116.611 181.814 119.065 181.168C119.99 180.924 120.904 180.761 121.844 181.032C121.755 181.551 121.449 181.74 121.028 181.841C118.326 182.476 115.628 183.126 112.923 183.753C112.513 183.85 112.157 183.954 112.021 184.399C112.052 184.454 112.075 184.535 112.122 184.554C113.151 184.961 114.158 185.584 115.218 185.708C116.406 185.843 117.409 184.902 118.512 184.484C119.476 184.117 120.424 183.703 121.399 183.366C121.778 183.234 122.196 183.285 122.278 183.958C121.825 184.202 121.353 184.473 120.869 184.717C119.592 185.355 118.318 186.006 117.022 186.605C116.221 186.977 116.07 187.55 116.236 188.262C117.366 188.928 118.291 188.63 119.22 188.03C120.222 187.383 121.248 186.772 122.282 186.184C122.622 185.99 123.025 185.905 123.342 186.381C122.568 187.689 120.869 188.007 119.952 189.384C121.442 189.988 122.82 190.596 124.232 191.107C127.657 192.345 131.218 192.682 134.806 192.252C137.817 191.892 140.697 190.956 143.325 189.404C144.614 188.645 145.899 188.165 147.408 188.692C150.52 186.373 153.163 183.61 156.07 181.133C155.307 180.378 155.737 179.29 155.025 178.524C156.085 178.095 157.119 178.737 158.264 178.416C158.528 178.11 158.876 177.704 159.228 177.289C158.934 176.941 158.686 176.647 158.334 176.233C159.042 176.132 159.638 176.047 160.265 175.958C161.264 174.751 162.433 173.663 163.075 172.072C162.568 171.801 162.146 171.592 161.744 171.352C160.977 170.892 160.811 169.94 161.438 169.355C161.841 168.98 162.348 168.724 162.781 168.38C163.203 168.043 163.865 168.028 164.078 167.424C164.016 167.277 163.993 167.103 163.892 167.006C160.807 163.972 158.342 160.453 155.992 156.842C155.516 156.111 155.238 155.523 156.027 154.76C156.67 154.141 156.794 153.204 156.825 152.322C156.925 149.458 157.072 146.59 156.341 143.772C156.267 143.493 156.085 143.246 155.927 142.936C154.704 143.238 153.81 143.915 152.873 144.476C151.511 145.297 150.191 146.187 148.84 147.023C148.302 147.356 147.733 147.642 147.156 147.91C146.843 148.057 146.487 147.96 146.332 147.658C146.255 147.503 146.336 147.163 146.467 147.023C146.893 146.566 147.373 146.164 147.876 145.7C147.586 145.429 147.365 145.2 147.129 144.999C145.674 143.76 144.196 142.549 142.76 141.287C141.622 140.289 140.53 139.24 139.427 138.206C138.912 137.723 138.328 137.595 137.662 137.804C137.511 137.85 137.36 137.905 137.217 137.978C135.487 138.841 133.711 138.826 131.896 138.284C130.672 137.916 129.43 137.711 128.137 137.699C126.663 137.684 125.513 138.129 124.697 139.414C123.895 140.676 122.653 141.396 121.298 141.934C120.633 142.197 119.944 142.406 119.309 142.723C118.345 143.207 117.734 143.931 117.478 145.069C117.227 146.187 117.211 147.252 117.304 148.091C118.384 149.601 119.305 150.894 120.447 152.457ZM157.111 209.1C154.673 208.4 152.234 207.707 149.8 206.991C148.724 206.673 147.644 206.588 146.448 206.724C146.185 207.9 146.444 209.007 146.386 210.099C146.324 211.206 146.293 212.312 146.255 213.296C147.025 214.48 147.718 215.54 148.434 216.632C150.884 216.821 153.334 217.073 155.787 217.185C159.526 217.356 163.265 217.545 167 217.673C176.087 217.986 185.179 217.983 194.27 217.712C194.828 217.696 195.404 217.746 195.939 217.626C197.591 217.259 199.271 217.433 200.935 217.286C202.673 217.135 204.419 217.038 206.16 216.907C206.629 216.872 207.093 216.802 207.6 216.748C208.645 215.304 209.694 213.907 210.685 212.463C211.223 211.678 211.683 210.834 211.807 209.859C212.132 207.262 212.469 204.661 212.751 202.06C212.809 201.522 212.628 200.961 212.612 200.411C212.6 199.951 212.542 199.424 212.728 199.037C213.336 197.771 213.467 196.456 213.409 195.314C209.76 189.702 206.327 184.183 202.921 178.396C202.673 179.647 202.77 180.684 202.812 181.706C202.921 184.361 202.514 186.95 201.783 189.473C201.009 192.14 200.126 194.776 198.93 197.295C197.688 199.916 197.073 202.679 197.049 205.59C197.03 208.229 197.537 210.811 197.792 213.419C197.862 214.12 197.951 214.84 197.881 215.533C197.808 216.253 196.701 216.609 196.159 216.113C195.815 215.8 195.462 215.417 195.296 214.991C194.301 212.479 193.299 209.967 193.148 207.215C193.129 206.851 193.241 206.406 192.645 206.128C192.447 206.232 192.169 206.348 191.929 206.519C191.414 206.89 190.934 207.316 190.412 207.68C186.588 210.37 182.176 211.391 177.655 211.875C174.257 212.239 170.828 212.158 167.418 211.593C164.035 211.039 160.714 210.315 157.111 209.1ZM203.908 242.594C205.727 242.273 207.43 241.669 208.986 240.651C209.311 240.438 209.721 240.365 210.065 240.179C210.723 239.827 211.327 240.063 211.799 240.454C212.337 240.903 212.744 241.507 213.251 242.091C213.537 242.11 213.851 242.172 214.16 242.145C214.47 242.122 214.795 242.056 215.078 241.932C216.254 241.425 217.326 240.775 218.166 239.761C219.196 238.523 219.962 237.149 220.554 235.662C222.323 231.235 223.585 226.648 224.788 222.05C225.613 218.9 226.476 215.761 227.861 212.812C228.392 211.685 228.38 210.73 227.927 209.63C227.25 207.993 227.021 206.255 227.114 204.487C227.23 202.261 227.536 200.067 228.039 197.891C228.593 195.507 229.096 193.108 229.634 190.654C229.433 190.549 229.247 190.429 229.046 190.352C227.703 189.841 227.59 189.044 227.819 187.883C227.927 187.341 228.144 186.818 228.256 186.276C228.295 186.091 228.156 185.87 228.082 185.607C227.815 185.773 227.567 185.855 227.432 186.025C223.654 190.735 219.892 195.457 216.076 200.233C216.243 200.5 216.366 200.79 216.572 201.015C217.512 202.048 217.419 203.178 216.916 204.351C216.792 204.641 216.653 204.932 216.494 205.206C215.066 207.753 213.967 210.49 212.121 212.796C211.923 213.044 211.741 213.311 211.567 213.574C209.647 216.489 207.735 219.407 205.816 222.325C206.141 222.565 206.52 222.546 206.834 222.225C207.612 221.427 208.339 220.58 209.137 219.806C209.496 219.457 209.969 219.38 210.371 219.968C208.978 222.155 207.573 224.365 206.164 226.575C204.5 229.187 202.824 231.796 201.171 234.42C200.881 234.884 200.417 235.473 200.509 235.899C200.73 236.897 200.122 237.28 199.592 237.872C198.973 238.569 198.547 239.436 198.063 240.187C198.532 241.247 199.275 241.785 200.184 242.169C201.253 242.629 202.352 242.664 203.908 242.594ZM333.987 234.277C330.906 235.063 327.818 235.728 324.636 236.049C321.075 236.406 317.518 236.704 313.946 236.762C310.606 236.816 307.27 236.735 303.93 236.487C299.246 236.138 294.548 236.026 289.853 235.813C289.772 235.809 289.694 235.813 289.613 235.81C286.126 235.566 282.643 235.248 279.148 235.093C275.568 234.935 271.995 234.718 268.423 234.466C267.397 234.393 266.36 234.455 265.35 234.126C265.029 234.021 264.626 234.172 264.347 234.199C264.429 235.039 264.463 235.755 264.576 236.46C264.696 237.222 264.471 238.074 265.148 238.747C265.346 238.778 265.578 238.848 265.806 238.852C270.981 238.906 276.156 238.952 281.331 239.235C284.984 239.432 288.649 239.351 292.307 239.649C295.713 239.924 299.146 239.862 302.56 240.183C304.932 240.408 307.32 240.373 309.7 240.632C312.704 240.957 315.73 241.05 318.745 241.267C319.694 241.333 320.634 241.534 321.582 241.557C322.987 241.592 324.419 242.072 325.805 241.317C326.118 241.147 326.591 241.224 326.985 241.263C329.671 241.514 332.357 241.789 335.047 242.045C335.427 242.079 335.841 242.227 336.298 241.774C336.766 239.428 337.273 236.951 337.733 234.466C337.811 234.056 338.101 233.538 337.598 233.22C336.483 233.526 335.415 233.824 333.987 234.277ZM377.3 186.66C376.193 187.256 375.09 187.848 373.999 188.432C373.925 188.703 373.829 188.928 373.805 189.16C373.596 191.296 373.407 193.433 373.202 195.569C373.012 197.547 372.838 199.525 372.617 201.499C372.389 203.55 372.102 205.594 371.862 207.645C371.831 207.9 371.692 208.233 372.11 208.446C373.256 207.478 374.401 206.499 375.342 205.299C378.291 201.537 381.105 197.679 383.609 193.603C386.024 189.671 388.342 185.68 390.363 181.528C390.684 180.866 391.017 180.223 391.671 179.875C392.677 179.341 393.072 178.474 393.355 177.425C394.02 174.96 394.252 172.428 394.628 169.916C394.698 169.448 394.694 168.96 394.663 168.484C394.64 168.078 394.818 167.625 394.434 167.145C392.902 169.189 391.59 171.263 390.378 173.404C390.227 173.671 390.111 174.004 390.115 174.302C390.134 175.107 389.666 175.633 389.175 176.167C385.668 179.995 381.929 183.567 377.3 186.66ZM349.554 186.664C351.578 184.326 353.606 181.984 355.618 179.662C354.821 178.149 354.055 176.693 353.319 175.296C351.369 175.559 349.484 175.803 347.599 176.07C345.091 176.426 342.571 176.732 340.079 177.197C338.372 177.514 336.708 178.052 335.032 178.509C334.552 178.64 334.18 178.923 334.057 179.558C334.285 180.301 334.486 181.152 334.807 181.957C335.659 184.094 336.514 186.226 337.459 188.324C338.237 190.062 339.123 191.749 339.998 193.441C340.358 194.133 340.706 194.873 341.67 195.229C342.049 194.954 342.54 194.687 342.912 194.304C343.907 193.274 344.874 192.218 345.811 191.134C347.007 189.744 348.156 188.324 349.554 186.664ZM235.571 222.581C234.735 221.327 233.895 220.073 233.059 218.815C232.196 217.514 231.631 215.993 230.23 214.886C230.23 215.432 230.218 215.819 230.23 216.206C230.331 219.298 230.412 222.395 230.559 225.483C230.625 226.888 230.226 228.34 230.942 229.694C231.039 229.876 231.008 230.186 230.923 230.391C230.574 231.239 230.683 232.121 230.706 232.984C230.787 236.077 230.9 239.173 231.051 242.261C231.082 242.881 231.352 243.488 231.449 244.108C231.589 244.978 232.123 245.532 232.839 245.938C233.942 246.565 235.056 247.169 236.183 247.757C236.345 247.842 236.589 247.769 236.879 247.769C236.709 246.991 236.442 246.318 236.45 245.64C236.457 244.858 236.697 244.08 236.852 243.303C236.988 242.606 237.162 241.913 237.286 241.213C237.758 238.565 238.207 235.918 238.691 233.274C238.787 232.736 238.962 232.198 239.198 231.707C239.314 231.463 239.631 231.273 239.902 231.157C240.223 231.018 240.676 231.285 240.97 230.794C239.248 228.169 237.51 225.514 235.571 222.581ZM174.605 227.5C194.352 232.802 196.496 233.329 198.942 233.445C199.84 232.144 200.773 230.794 201.794 229.319C201.063 229.125 200.463 228.943 199.855 228.816C199.232 228.688 198.598 228.63 197.971 228.51C195.083 227.972 192.196 227.426 189.309 226.877C185.485 226.149 181.657 225.437 177.841 224.686C173.398 223.811 168.97 222.871 164.523 222.023C160.389 221.234 156.244 220.518 152.099 219.79C151.487 219.682 150.853 219.713 149.904 219.662C150.408 220.123 150.632 220.479 150.949 220.603C152.726 221.284 154.495 222.016 156.321 222.526C162.282 224.195 168.265 225.77 174.605 227.5ZM201.721 223.219C202.688 222.283 203.652 221.346 204.817 220.216C204.07 220.177 203.613 220.119 203.165 220.138C200.308 220.251 197.456 220.444 194.603 220.483C190.388 220.541 186.17 220.494 181.955 220.491C181.479 220.491 180.999 220.506 180.527 220.456C178.487 220.227 176.455 219.929 174.415 220.456C174.191 220.514 173.905 220.541 173.707 220.448C172.116 219.728 170.425 220.138 168.788 219.984C168.501 219.956 168.2 220.088 167.782 220.173C168.01 220.374 168.103 220.525 168.227 220.556C179.489 223.169 190.822 225.476 202.147 227.806C202.367 227.852 202.611 227.782 202.932 227.759C203.393 227.07 203.873 226.358 204.415 225.549C204.051 225.476 203.834 225.39 203.625 225.402C203.153 225.425 202.681 225.541 202.212 225.538C201.636 225.538 201.241 225.077 201.253 224.415C201.249 224.113 201.392 223.811 201.721 223.219ZM163.934 197.911C163.776 196.173 163.706 194.42 163.431 192.697C163.16 190.998 163.296 189.245 162.862 187.534C162.348 187.569 161.945 187.558 161.558 187.627C157.962 188.274 154.371 188.932 150.721 189.183C150.253 189.214 149.769 189.33 149.339 189.512C148.987 189.659 148.662 189.93 148.395 190.217C148.267 190.352 148.236 190.665 148.298 190.859C148.36 191.056 148.561 191.3 148.747 191.347C149.041 191.42 149.386 191.405 149.684 191.327C151.932 190.747 154.27 190.948 156.538 190.553C156.685 190.526 156.867 190.542 156.999 190.604C157.115 190.658 157.254 190.805 157.262 190.917C157.27 191.037 157.142 191.254 157.049 191.269C154.87 191.664 152.683 192.036 150.5 192.407C150.264 192.446 149.997 192.399 149.796 192.492C149.622 192.574 149.521 192.802 149.386 192.964C149.51 193.046 149.657 193.212 149.757 193.193C151.661 192.79 153.543 193.278 155.431 193.352C155.578 193.359 155.718 193.537 156.116 193.816C153.961 194.176 152.049 193.777 150.218 194.087C150.079 194.811 150.032 195.422 150.284 195.941C154.816 197.145 159.247 198.317 163.818 199.533C163.857 199.064 163.896 198.693 163.934 197.911ZM122.734 192.806C121.643 192.337 120.559 191.858 119.46 191.409C119.027 191.231 118.578 191.053 118.121 190.983C116.704 190.778 116.255 191.196 116.263 192.643C116.267 193.359 116.271 194.075 116.317 194.787C116.453 196.92 116.611 199.053 116.755 201.185C116.778 201.503 116.724 201.832 116.786 202.137C116.898 202.664 117.08 203.175 117.25 203.759C118.071 203.372 118.783 203.055 119.476 202.702C122.583 201.131 125.761 199.718 128.985 198.41C130.011 197.996 131.044 197.605 132.077 197.21C132.67 196.982 132.91 196.541 132.898 195.805C131.481 195.863 130.073 195.921 128.66 195.976C128.114 195.995 127.565 196.018 127.019 196.003C126.93 195.999 126.775 195.801 126.775 195.693C126.775 195.585 126.922 195.403 127.027 195.387C127.708 195.275 128.397 195.198 129.097 195.109C128.931 194.52 128.586 194.238 128.056 194.188C127.356 194.126 126.624 194.176 125.962 193.986C124.987 193.711 124.054 193.266 122.734 192.806ZM344.425 151.366C343.535 152.484 342.645 153.607 341.689 154.81C343.129 155.372 343.307 156.509 343.156 157.767C343.063 158.538 342.893 159.296 342.746 160.128C343.082 160.353 343.392 160.593 343.736 160.771C344.147 160.98 344.584 161.135 344.971 161.297C346.972 160.035 348.288 157.825 350.869 157.802C353.308 159.617 354.26 159.455 356.443 159.385C357.689 159.346 358.746 158.812 359.586 157.891C359.891 157.554 360.286 157.218 360.112 156.664C360 156.3 359.284 156.246 358.633 156.653C356.687 157.876 354.666 158.027 352.518 157.218C352.421 156.006 353.675 155.29 353.579 154.075C353.064 153.618 352.518 153.162 352.011 152.674C351.438 152.124 350.881 151.552 350.347 150.967C349.867 150.441 349.441 149.86 348.954 149.342C348.431 148.788 348.122 148.002 347.247 147.642C346.337 148.831 345.47 149.953 344.425 151.366ZM367.605 173.338C369.389 174.007 371.185 174.658 373.066 174.987C375.408 175.401 377.769 175.734 380.122 176.078C380.308 176.105 380.524 175.95 380.722 175.885C379.804 173.028 378.86 170.249 377.567 167.602C377.366 167.192 377.064 166.828 376.836 166.483C375.322 166.375 374.072 166.901 372.818 167.385C371.56 167.873 370.295 168.337 369.06 168.875C367.86 169.398 366.595 169.816 365.588 170.667C365.964 171.48 366.274 172.212 366.645 172.908C366.742 173.086 367.036 173.156 367.605 173.338ZM359.74 146.083C358.889 148.37 358.034 150.657 357.174 152.968C358.676 154.168 360.774 155.166 364.315 156.351C365.534 154.567 365.534 154.567 367.81 153.874C368.038 153.804 368.263 153.727 368.491 153.653C369.002 153.491 369.269 153.146 369.285 152.612C367.45 149.887 363.189 145.672 360.491 143.942C360.259 144.546 360.035 145.131 359.74 146.083ZM351.973 150.201C352.909 150.986 353.586 152.124 354.879 152.422C355.971 151.757 356.087 150.572 356.493 149.578C357.674 146.686 358.123 144.991 358.126 143.702C354.837 144.36 351.57 145.014 348.152 145.696C349.236 147.344 350.475 148.66 351.973 150.201ZM147.307 194.091C147.11 193.251 146.909 192.411 146.707 191.56C146.119 191.3 145.554 191.053 144.896 190.766C144.37 190.967 143.708 191.087 143.212 191.44C141.691 192.519 139.985 193.061 138.204 193.479C137.755 193.584 137.341 193.824 136.904 194.006C136.629 195.016 135.994 195.852 136.017 197.025C138.994 197.183 141.889 196.959 144.761 196.448C145.38 196.339 145.995 196.192 146.603 196.014C147.365 195.786 147.505 195.213 147.307 194.091ZM361.575 171.902C359.582 172.962 357.348 173.504 355.39 174.596C355.971 176.523 356.447 177.247 357.871 178.412C360.108 177.63 362.047 176.283 363.889 174.781C364.304 174.445 364.625 173.996 364.95 173.636C364.462 172.622 364.478 171.503 363.498 170.768C362.953 171.108 362.43 171.434 361.575 171.902ZM228.593 237.605C228.512 236.916 228.701 236.185 228.299 235.519C226.716 235.519 225.144 235.519 223.581 235.519C222.71 237.288 221.882 238.972 221.061 240.663C221.038 240.709 221.108 240.798 221.173 240.961C222.365 240.76 223.585 240.558 224.8 240.346C226.023 240.133 227.347 240.473 228.597 239.668C228.597 239.15 228.597 238.6 228.593 237.605ZM152.815 186.172C152.432 186.567 152.045 186.962 151.646 187.372C151.774 187.434 151.851 187.507 151.909 187.496C155.122 186.729 158.334 185.959 161.546 185.185C161.701 185.146 161.852 185.108 161.999 185.053C162.019 185.046 162.003 184.941 162.003 184.759C160.799 183.993 159.545 183.184 158.28 182.398C158.086 182.278 157.831 182.263 157.618 182.205C156.287 182.805 155.149 183.625 154.224 184.744C153.871 185.173 153.446 185.537 152.815 186.172ZM245.971 238.592C245.383 237.292 244.558 236.142 243.722 235.016C242.878 234.861 242.12 234.826 241.268 235.159C241.245 235.84 241.191 236.464 241.214 237.083C241.241 237.756 240.862 238.472 241.392 239.227C242.851 239.061 244.341 239.289 245.971 238.592ZM225.829 228.502C225.744 228.854 225.659 229.207 225.547 229.652C226.565 229.76 227.486 229.702 228.508 229.524C228.508 227.186 228.539 224.969 228.484 222.751C228.473 222.252 228.179 221.76 227.981 221.172C227.269 223.579 226.588 225.855 225.829 228.502ZM377.672 180.556C377.85 180.986 378.032 181.415 378.245 181.93C379.557 180.962 380.629 179.821 381.836 178.598C379.89 178.408 378.098 178.234 376.236 178.052C376.727 178.857 377.138 179.53 377.672 180.556ZM341.081 139.6C340.721 139.205 340.361 138.806 339.912 138.315C339.506 138.857 339.026 139.248 338.891 139.731C338.67 140.533 339.026 141.287 339.564 141.914C339.955 142.367 340.845 142.224 341.225 141.713C341.681 141.094 341.453 140.521 341.081 139.6ZM361.172 136.887C361.141 136.341 361.184 135.784 361.064 135.261C360.948 134.766 360.185 134.468 359.69 134.615C359.079 134.801 358.769 135.28 358.842 135.869C358.928 136.534 359.214 137.038 359.771 137.452C360.321 137.858 360.631 137.541 361.172 136.887ZM376.534 182.727C376.228 182.782 375.899 182.785 375.617 182.902C374.765 183.246 374.618 183.656 374.955 184.852C375.636 184.241 376.282 183.683 376.882 183.087C376.956 183.01 376.793 182.704 376.534 182.727Z" fill="#0D0C0C"/>
<path d="M28.6224 237.346C29.1256 238.07 29.5668 238.643 29.8919 239.273C30.1744 239.823 30.5344 240.388 30.4299 241.058C30.3834 241.36 30.3563 241.77 30.1628 241.917C29.8416 242.157 29.4236 242.052 29.0791 241.778C28.3399 241.182 27.5426 240.644 26.8498 239.997C25.7429 238.968 24.5585 238.066 23.2891 237.238C18.9504 234.397 14.9484 231.13 11.6315 227.124C10.2769 225.487 9.16607 223.641 8.06302 221.814C6.66968 219.511 5.58211 217.054 4.76933 214.48C4.37456 213.234 3.76691 212.154 2.36583 211.771C2.06782 211.689 1.82398 211.438 1.5337 211.318C0.755759 211 0.275833 210.428 0.0281296 209.642C0.403555 208.597 0.976371 207.668 1.5608 206.724C3.48824 203.608 4.72676 200.19 5.69822 196.676C6.07365 195.314 6.32909 193.917 6.6813 192.547C6.80902 192.055 7.06833 191.594 7.27346 191.107C7.66824 191.42 7.974 191.637 7.94691 192.121C7.84241 194.172 7.58696 196.2 7.14961 198.209C6.31361 202.021 6.16654 203.244 6.52648 206.712C6.82063 209.534 7.51729 212.258 8.54681 214.929C9.54537 217.514 11.1438 219.612 12.9165 221.659C15.0413 224.113 17.0616 226.656 19.1671 229.129C19.6741 229.725 20.3205 230.209 20.9088 230.735C23.3936 232.961 26.277 234.714 28.6224 237.346Z" fill="#0D0C0C"/>
<path d="M150.744 130.036C149.277 129.599 147.992 129.223 146.738 128.763C142.315 127.145 138.514 124.474 134.802 121.649C131.11 118.835 128.091 115.329 124.851 112.054C124.077 111.273 123.435 110.359 122.761 109.484C122.525 109.175 122.378 108.796 122.196 108.447C121.999 108.072 121.922 107.685 122.274 107.375C122.622 107.069 123.284 107.038 123.605 107.305C123.907 107.561 124.182 107.847 124.437 108.149C125.463 109.361 126.473 110.588 127.503 111.795C128.118 112.519 128.706 113.281 129.403 113.92C133.695 117.864 138.491 120.987 143.948 123.143C147.563 124.571 151.22 125.295 155.075 124.908C157.44 124.668 159.72 124.056 161.941 123.201C163.195 122.717 164.484 122.334 165.874 122.512C166.826 122.632 167.669 123.356 167.844 124.289C168.076 125.531 167.832 126.692 167.038 127.652C166.543 128.252 165.904 128.763 165.25 129.189C163.903 130.071 162.398 130.535 160.78 130.648C160.157 130.69 159.542 130.853 158.918 130.93C158.605 130.969 158.264 131.031 157.974 130.946C156.503 130.516 154.978 130.752 153.492 130.524C152.641 130.388 151.793 130.214 150.744 130.036Z" fill="#0D0C0C"/>
<path d="M88.4042 155.023C88.5512 155.352 88.7138 155.693 88.8725 156.037C89.0467 156.417 88.8067 156.614 88.5512 156.773C85.3272 155.116 82.1613 153.375 78.8985 151.842C75.6281 150.309 72.3499 148.792 69.0368 147.147C68.8356 147.735 68.6885 148.161 68.4872 148.734C68.0615 148.366 67.7325 147.995 67.3261 147.755C66.7881 147.433 66.2076 147.143 65.6077 146.961C65.0852 146.803 64.5085 146.822 63.9589 146.737C63.8118 146.714 63.688 146.547 63.5448 146.524C61.985 146.28 60.4253 145.943 58.8539 145.862C57.7353 145.804 56.6826 145.494 55.5834 145.382C54.4881 145.27 53.3928 145.398 52.2897 145.084C51.3918 144.833 50.3971 144.933 49.3405 144.875C49.2205 145.301 49.1044 145.715 48.9922 146.114C43.891 146.83 39.235 148.684 34.8189 151.242C31.6878 153.057 28.6379 154.981 25.6616 157.036C25.1584 157.384 24.5431 157.578 23.9664 157.81C23.8619 157.853 23.6413 157.756 23.5561 157.655C23.4787 157.566 23.4477 157.315 23.5135 157.249C24.5624 156.161 25.5416 154.981 26.7143 154.044C28.5024 152.616 30.3176 151.215 32.2374 149.957C34.5596 148.436 37.0792 147.344 39.7149 146.508C41.9636 145.796 44.2355 145.165 46.5693 145.076C46.8635 144.38 45.8804 144.511 46.0081 143.985C46.9332 143.648 49.9211 143.273 51.5118 143.242C53.3347 143.207 55.1383 143.335 56.9497 143.571C58.8268 143.815 60.6884 144.117 62.5462 144.496C64.3498 144.864 65.9986 145.572 67.6241 146.365C68.0421 145.943 68.2821 145.363 69.1259 145.723C71.2275 146.621 73.3833 147.399 75.5081 148.239C77.122 148.877 78.7321 149.531 80.3344 150.197C83.1985 151.385 85.7259 153.119 88.2803 155.07C88.4506 155.07 88.4196 155.039 88.4042 155.023Z" fill="#0D0C0C"/>
<path d="M192.506 141.438C191.983 140.974 191.793 140.521 191.999 140.045C192.386 139.17 192.908 138.416 193.752 137.862C195.273 136.867 196.701 135.729 198.222 134.739C199.716 133.767 200.92 132.536 201.93 131.093C203.242 129.223 204.577 127.373 205.413 125.214C205.618 124.687 206.114 124.366 206.733 124.327C207.333 124.289 207.724 124.56 208.064 125.09C208.486 125.748 208.529 126.487 208.378 127.149C207.515 130.953 206.052 134.487 203.343 137.39C201.287 139.588 198.787 141.013 195.822 141.601C195.668 141.632 195.493 141.628 195.358 141.698C194.418 142.201 193.527 141.945 192.506 141.438Z" fill="#0D0C0C"/>
<path d="M44.0226 216.272C45.9075 216.334 47.5524 216.492 49.0386 217.344C49.3715 217.537 49.6772 217.781 50.0217 218.017C49.8204 218.761 49.3947 219.128 48.6826 219.163C44.5451 219.357 40.4774 219.101 36.4948 217.785C32.249 216.384 29.0288 213.733 26.6369 210.044C26.0564 209.147 25.5881 208.09 25.7274 206.933C25.7506 206.747 25.9596 206.553 26.1299 206.43C26.1996 206.379 26.4163 206.491 26.5363 206.573C26.664 206.658 26.8072 206.778 26.8614 206.913C27.7787 209.321 29.7564 210.869 31.6065 212.417C33.4836 213.988 35.7904 214.894 38.2171 215.432C39.6917 215.757 41.1624 215.966 42.6719 215.997C43.0512 216.013 43.4305 216.171 44.0226 216.272Z" fill="#0D0C0C"/>
<path d="M109.993 135.068C108.681 139.36 107.501 143.493 105.937 147.495C105.252 149.245 104.269 150.878 103.475 152.453C102.643 152.755 102.291 152.341 101.931 151.745C105.209 143.288 108.019 134.592 110.957 125.941C111.185 125.272 111.425 124.622 111.766 124.014C112.041 123.515 112.397 123.565 113.163 124.238C112.16 127.749 111.205 131.344 109.993 135.068Z" fill="#0D0C0C"/>
<path d="M14.4414 171.557C15.0645 171.519 15.2774 171.747 14.9794 172.223C13.9808 173.806 13.0094 175.405 11.9682 176.961C9.07705 181.268 6.84772 185.901 4.99769 190.731C4.27393 192.62 3.46502 194.478 2.72191 196.359C2.51291 196.885 2.31552 197.381 1.61498 197.555C1.52983 197.388 1.36728 197.214 1.35954 197.028C1.28213 195.592 1.79689 194.261 2.16457 192.91C2.51678 191.625 2.94252 190.364 3.3373 189.09C4.89706 184.051 7.51343 179.608 10.8071 175.513C11.9063 174.151 13.0635 172.866 14.4414 171.557Z" fill="#0D0C0C"/>
<path d="M25.2552 160.341C23.6916 161.673 22.2363 162.888 20.7849 164.107C20.3592 164.463 19.918 164.804 19.5154 165.191C17.4564 167.168 15.2309 168.941 12.99 170.698C11.6857 171.72 10.273 172.568 8.6668 173.024C8.29911 173.129 7.88885 173.113 7.49794 173.113C7.25024 173.113 6.95996 172.575 7.08381 172.37C7.24637 172.103 7.38957 171.801 7.61793 171.6C8.86805 170.501 10.1182 169.394 11.4148 168.353C13.5086 166.669 15.6257 165.013 17.7622 163.383C19.9605 161.707 22.1396 159.989 24.7675 159.01C25.232 159.3 25.8822 159.486 25.2552 160.341Z" fill="#0D0C0C"/>
<path d="M65.8631 222.433C60.7659 223.687 55.7847 223.711 50.8035 223.335C48.6129 223.169 46.4687 222.577 44.371 221.895C44.162 221.826 43.9259 221.435 43.9336 221.199C43.9452 220.839 44.3129 220.742 44.6535 220.765C45.354 220.812 46.043 220.75 46.7551 220.947C47.5021 221.152 48.3265 221.11 49.1199 221.118C51.028 221.137 52.94 221.222 54.8364 221.102C56.8723 220.97 58.8887 220.576 60.9245 220.398C63.1887 220.2 65.4722 219.953 67.7751 220.978C67.7093 221.265 67.7325 221.69 67.5622 221.795C67.1055 222.07 66.5675 222.213 65.8631 222.433Z" fill="#0D0C0C"/>
<path d="M93.5982 175.509C89.6117 177.073 85.811 178.609 81.9987 180.127C81.3524 180.386 80.6712 180.572 79.9939 180.726C79.8274 180.765 79.5217 180.595 79.4249 180.432C79.332 180.277 79.3436 179.933 79.4559 179.805C80.319 178.857 81.4646 178.288 82.5638 177.696C86.3142 175.672 90.2774 174.143 94.3336 172.854C96.7293 172.092 99.1406 171.387 101.532 170.605C102.283 170.362 102.732 170.605 103.104 171.201C103.038 171.345 103.011 171.55 102.91 171.6C102.129 171.972 101.343 172.32 100.546 172.657C98.293 173.601 96.0365 174.538 93.5982 175.509Z" fill="#0D0C0C"/>
<path d="M65.062 163.492C64.0673 163.399 63.2932 163.236 62.5114 163.221C58.8423 163.151 55.177 163.116 51.5079 163.074C50.6294 163.062 49.7546 163.062 48.8761 163.043C48.551 163.035 48.551 163.016 47.8117 162.079C48.3226 161.843 48.7832 161.514 49.2863 161.417C50.6061 161.173 51.9414 161.026 53.2728 160.852C54.2869 160.72 55.297 160.566 56.3149 160.484C59.9802 160.198 63.5912 160.755 67.1636 161.448C68.344 161.676 69.6948 161.862 70.5308 162.992C70.078 163.968 69.8496 164.208 69.2691 163.956C67.9686 163.391 66.6062 163.627 65.062 163.492Z" fill="#0D0C0C"/>
<path d="M77.3814 193.297C77.7916 192.798 78.1361 192.454 78.376 192.047C78.5773 191.703 78.616 191.289 78.2328 190.971C77.4897 190.944 77.1801 192.326 76.1893 191.61C76.1893 191.482 76.1312 191.296 76.197 191.203C76.7582 190.441 77.2885 189.644 77.9309 188.947C80.0403 186.652 82.5406 184.872 85.3233 183.486C85.4317 183.432 85.722 183.486 85.7297 183.521C85.7607 183.718 85.7414 183.927 85.7104 184.128C85.7026 184.19 85.6136 184.248 85.5517 184.299C85.0021 184.736 84.5338 185.247 83.9339 185.653C82.9624 186.311 82.1651 187.236 81.3291 188.08C81.1937 188.216 81.1356 188.537 81.1898 188.726C81.2866 189.059 81.5807 189.133 81.9329 189.094C82.3006 189.055 82.6799 189.098 83.1869 189.11C83.0902 189.559 83.1056 189.895 82.9508 190.124C82.6915 190.515 82.3277 190.84 82.0026 191.188C80.4389 192.868 78.6741 194.354 77.3659 196.274C76.9246 196.924 76.3209 197.47 75.8758 197.969C75.5158 197.907 75.2759 197.922 75.2449 197.849C75.1288 197.582 74.943 197.218 75.0398 197.009C75.361 196.305 75.779 195.639 76.1931 194.981C76.526 194.451 76.9092 193.944 77.3814 193.297ZM80.2725 190.29C80.4041 190.05 80.5318 189.814 80.6634 189.574C80.377 189.52 80.0364 189.338 79.8197 189.435C79.4404 189.609 79.1346 189.953 78.7708 190.248C79.003 190.406 79.1192 190.553 79.2507 190.565C79.4752 190.592 79.7074 190.53 80.2725 190.29Z" fill="#0D0C0C"/>
<path d="M61.2767 165.175C60.8549 165.28 60.6381 165.384 60.4136 165.404C59.5389 165.477 58.6526 165.442 57.7934 165.589C56.0053 165.895 54.2327 166.271 52.46 166.658C50.7726 167.025 49.1044 167.478 47.4169 167.83C46.8983 167.939 46.341 167.846 45.7875 167.846C45.8185 167.61 45.7836 167.408 45.8688 167.319C46.0817 167.091 46.3178 166.839 46.6003 166.731C49.3792 165.624 52.1775 164.568 55.1809 164.2C56.0401 164.095 56.8994 164.014 57.7586 163.867C59.5583 163.565 61.3735 163.991 63.1655 164.304C63.3126 164.331 63.4829 164.42 63.5757 164.537C63.7112 164.699 63.8776 164.928 63.8505 165.102C63.8351 165.222 63.4287 165.427 63.3474 165.373C62.7475 164.974 62.1011 165.183 61.2767 165.175Z" fill="#0D0C0C"/>
<path d="M44.669 173.926C44.1504 174.065 43.9259 173.833 43.8756 173.512C43.8446 173.311 43.9336 173.017 44.0807 172.877C46.2829 170.768 48.8916 169.371 51.8176 168.562C52.7232 168.31 53.656 168.136 54.5849 167.997C54.9409 167.946 55.3241 168.101 55.9124 168.198C55.6221 168.597 55.5021 168.957 55.2738 169.042C51.6782 170.404 48.2723 172.184 44.669 173.926Z" fill="#0D0C0C"/>
<path d="M88.6944 179.732C85.4666 181.868 82.3432 183.869 79.1888 185.824C78.5541 186.218 77.9 186.702 76.913 186.648C77.0137 186.308 77.0253 186.091 77.1298 185.932C77.8535 184.837 79.0417 184.287 80.0287 183.501C82.0026 181.934 84.0113 180.409 86.3722 179.414C87.0534 179.128 87.7036 178.884 88.4235 179.051C88.5783 179.082 88.6673 179.395 88.6944 179.732Z" fill="#0D0C0C"/>
<path d="M204.492 17.8612C205.003 16.8665 205.394 16.0073 205.839 15.1752C205.982 14.9081 206.238 14.672 206.497 14.5172C206.671 14.4127 206.988 14.3972 207.166 14.4862C207.333 14.5675 207.488 14.8384 207.503 15.0358C207.584 16.0189 207.027 16.8317 206.675 17.6832C206.176 18.8985 205.599 20.0789 204.794 21.1549C204.144 22.0218 203.722 23.0552 203.141 23.9802C202.944 24.2937 202.596 24.5337 202.274 24.7505C201.926 24.9865 201.361 24.6847 201.419 24.2976C201.489 23.8448 201.574 23.3649 201.779 22.9623C202.623 21.302 203.517 19.6609 204.492 17.8612Z" fill="#0D0C0C"/>
<path d="M49.9172 180.676C48.222 182.247 46.879 183.892 45.7101 185.684C45.2302 186.416 44.5954 186.969 43.9994 187.488C43.5079 187.275 43.4072 186.969 43.5466 186.664C43.9413 185.8 44.4445 184.988 44.7928 184.109C45.5243 182.271 46.9718 181.036 48.3652 179.759C48.9419 179.229 49.596 178.772 50.2578 178.35C50.5597 178.156 50.9622 178.122 51.2293 178.044C51.7169 178.365 51.6008 178.741 51.4421 178.954C51.0203 179.523 50.5132 180.03 49.9172 180.676Z" fill="#0D0C0C"/>
<path d="M211.494 29.5962C209.396 30.0296 207.519 30.5754 205.587 30.4515C205.243 29.9174 205.15 29.5071 205.762 29.2439C206.118 29.093 206.47 28.9111 206.845 28.8221C208.815 28.3383 210.781 27.8429 212.767 27.4326C213.529 27.2778 214.334 27.3165 215.12 27.3281C215.283 27.332 215.507 27.5758 215.592 27.7616C215.736 28.079 215.616 28.4041 215.298 28.5589C214.16 29.1046 212.91 29.2827 211.494 29.5962Z" fill="#0D0C0C"/>
<path d="M209.644 40.5493C209.051 39.7404 209.129 39.3495 209.717 39.3418C212.643 39.3185 215.565 39.2876 218.464 39.8062C218.975 39.8991 219.323 40.1507 219.42 40.7351C218.735 41.2421 218.124 41.6059 217.113 41.2653C216.169 40.948 215.074 41.0602 214.044 41.0138C212.631 40.948 211.203 41.0099 209.644 40.5493Z" fill="#0D0C0C"/>
<path d="M45.5437 177.274C46.3178 176.457 46.9757 175.765 47.6298 175.072C48.8567 173.771 50.521 173.191 52.0653 172.428C52.3865 172.27 52.8355 172.359 53.2264 172.351C53.296 172.351 53.4083 172.409 53.4276 172.463C53.4702 172.599 53.5321 172.796 53.4663 172.881C53.2806 173.129 53.0638 173.365 52.8161 173.551C50.8035 175.064 48.7832 176.574 46.759 178.067C46.5113 178.249 46.2094 178.431 45.9191 178.455C45.6404 178.478 45.3463 178.288 45.0599 178.195C45.176 177.928 45.2998 177.661 45.5437 177.274Z" fill="#0D0C0C"/>
<path d="M326.277 174.162C327.206 173.299 328.003 172.541 328.835 171.828C328.967 171.716 329.273 171.736 329.47 171.794C329.73 171.867 329.815 172.347 329.656 172.61C329.575 172.746 329.509 172.893 329.408 173.009C328.174 174.437 326.707 175.59 325.124 176.655C324.864 175.888 324.864 175.888 326.277 174.162Z" fill="#0D0C0C"/>
<path d="M176.13 45.9562C173.719 47.1792 172.732 49.2538 172.124 51.5063C171.431 54.0569 171.524 56.6268 171.969 59.2625C172.372 61.6467 173.158 63.8335 174.179 65.9776C174.868 67.4252 175.774 68.7295 176.985 69.7977C177.283 70.0609 177.57 70.3434 177.837 70.6376C178.63 71.5161 178.677 72.654 177.783 73.3778C176.184 74.6744 174.547 75.9129 172.372 76.1954C171.706 76.2806 171.149 76.0948 170.595 75.9361C169.748 75.6923 169.639 74.5002 170.379 74.0203C170.975 73.6371 171.636 73.3507 172.26 73.0062C173.018 72.5921 173.773 72.1625 174.64 71.6787C173.405 69.9215 172.325 68.207 171.466 66.3569C169.469 62.0492 168.927 57.5131 169.523 52.8764C169.794 50.7787 170.607 48.7468 171.969 47.0399C173.459 45.1667 175.395 43.9785 177.756 43.5566C178.762 43.3785 179.764 43.0031 180.809 43.1928C181.417 43.305 182.013 43.5101 182.586 43.7462C182.717 43.8004 182.826 44.1681 182.779 44.3461C182.729 44.5358 182.504 44.7603 182.315 44.8106C182.017 44.888 181.68 44.8532 181.363 44.8261C179.563 44.6751 177.899 45.1241 176.13 45.9562Z" fill="#0D0C0C"/>
<path d="M168.633 89.2811C167.6 89.8733 166.74 90.4732 165.784 90.7944C163.563 91.5492 161.442 91.1582 159.491 89.8733C156.747 88.062 154.855 85.6197 153.891 82.446C153.701 81.8152 153.686 81.2114 153.674 80.5883C153.662 80.1161 154.011 79.6749 154.471 79.5471C154.909 79.4272 155.218 79.6207 155.447 80.0116C155.803 80.6231 156.167 81.2114 156.438 81.8848C157.123 83.5801 158.067 85.1398 159.329 86.4906C160.44 87.6788 161.748 88.5148 163.385 88.7548C163.764 88.8089 164.171 88.8631 164.534 88.7818C167.282 88.1819 169.179 86.537 170.321 83.9903C170.417 83.7775 170.444 83.4988 170.599 83.3556C170.812 83.1582 171.238 82.8795 171.354 82.9569C171.648 83.1543 172.02 83.5414 172.008 83.8394C171.969 84.6986 171.648 85.5036 171.207 86.2661C170.561 87.3808 169.682 88.2903 168.633 89.2811Z" fill="#0D0C0C"/>
<path d="M158.733 63.6438C157.471 63.7909 156.999 63.0478 156.499 62.235C156.693 61.7744 156.84 61.2326 157.126 60.7836C157.893 59.5799 159.333 59.6496 159.902 60.9617C160.13 61.488 160.103 62.1924 159.991 62.7807C159.909 63.2336 159.425 63.5045 158.733 63.6438Z" fill="#0D0C0C"/>
<path d="M181.746 56.8668C183.426 56.3946 184.053 56.7701 184.142 58.1131C184.157 58.3492 184.157 58.5891 184.138 58.8252C184.045 59.9747 183.042 60.5979 181.912 60.2186C181.343 60.0289 180.759 58.8949 180.968 58.2369C181.107 57.7996 181.394 57.4009 181.746 56.8668Z" fill="#0D0C0C"/>
<path d="M141.73 179.751C140.581 179.147 139.59 178.644 138.611 178.125C138.193 177.905 137.771 177.669 137.388 177.394C135.816 176.264 135.921 175.3 137.79 174.553C140.058 173.647 142.365 172.835 144.676 172.037C145.732 171.67 146.835 171.604 147.965 171.952C148.186 172.653 148.395 173.311 148.627 174.054C148.228 175.014 147.853 176.051 147.377 177.038C146.905 178.025 146.332 178.961 145.802 179.921C146.92 180.517 147.358 180.599 148.534 180.502C149.432 180.428 150.245 180.142 150.922 179.542C152.374 178.249 153.438 176.693 154.038 174.836C154.135 174.538 154.166 174.22 154.259 173.922C154.394 173.493 154.967 173.098 155.11 173.311C155.269 173.551 155.431 173.884 155.393 174.147C154.882 177.75 153.155 180.513 149.738 182.151C149.506 183.273 149.01 184.326 148.093 185.162C147.118 186.048 146.015 186.598 144.664 186.544C143.723 186.509 142.791 186.578 141.854 186.23C141.215 185.99 140.449 186.087 139.737 186.056C137.569 185.959 135.743 185.142 134.311 183.494C134.206 183.374 134.129 183.234 134.04 183.103C133.819 182.77 133.858 182.139 134.16 182.038C134.431 181.949 134.825 181.895 135.034 182.031C135.971 182.638 136.908 183.234 138.011 183.486C138.626 183.625 139.241 183.784 139.865 183.857C141.223 184.016 142.148 183.327 142.791 182.213C143.065 181.733 143.274 181.187 143.034 180.626C142.825 180.15 142.357 179.983 141.73 179.751ZM143.483 174.41C142.287 174.82 141.088 175.223 139.899 175.652C139.555 175.776 139.168 175.923 139.226 176.535C140.012 176.964 140.821 177.464 141.676 177.858C142.52 178.245 143.298 178.834 144.443 178.919C145.55 177.363 146.572 175.718 147.392 173.736C146.947 173.694 146.649 173.593 146.378 173.647C145.531 173.825 144.691 174.058 143.483 174.41ZM145.984 181.953C145.686 181.957 145.26 181.841 145.117 181.992C144.675 182.456 144.168 183.916 144.052 184.663C146.382 184.783 147.04 184.399 147.954 182.352C147.408 182.263 146.87 182.178 145.984 181.953Z" fill="#0D0C0C"/>
<path d="M133.85 169.839C133.815 170.28 133.838 170.532 133.761 170.745C133.606 171.17 133.467 171.65 132.91 171.732C132.511 171.79 132.163 171.244 132.135 170.505C132.116 169.959 132.101 169.413 132.132 168.871C132.159 168.411 132.639 167.989 133.061 167.989C133.533 167.989 133.753 168.237 133.85 168.93C133.881 169.158 133.858 169.394 133.85 169.839Z" fill="#0D0C0C"/>
<path d="M150.744 165.121C150.64 166.019 150.733 166.766 150.14 167.288C150.04 167.377 149.854 167.432 149.722 167.412C149.591 167.397 149.405 167.292 149.366 167.18C149.045 166.282 149.134 165.353 149.285 164.448C149.312 164.289 149.781 164.111 150.048 164.111C150.497 164.115 150.678 164.486 150.744 165.121Z" fill="#0D0C0C"/>
</svg>
